<svg width="104" height="104" viewBox="0 0 104 104" fill="none" xmlns="http://www.w3.org/2000/svg">
<circle cx="52" cy="52" r="50" stroke="#F4F4F4" stroke-width="4" stroke-linecap="round" stroke-linejoin="round"/>
<path fill-rule="evenodd" clip-rule="evenodd" d="M32 25C32 24.4477 32.4477 24 33 24L71 24C71.5523 24 72 24.4477 72 25V78.0893C72 78.9278 71.0301 79.394 70.3753 78.8702L52.6247 64.6697C52.2595 64.3775 51.7405 64.3775 51.3753 64.6697L33.6247 78.8702C32.9699 79.394 32 78.9278 32 78.0893L32 25Z" fill="#141414"/>
<path d="M33.6247 78.8702L32.3753 77.3084L33.6247 78.8702ZM52.6247 64.6697L53.8741 63.1079L52.6247 64.6697ZM51.3753 64.6697L50.1259 63.1079L51.3753 64.6697ZM70.3753 78.8702L71.6247 77.3084L70.3753 78.8702ZM71 22L33 22V26L71 26V22ZM74 78.0893V25H70V78.0893H74ZM51.3753 66.2314L69.1259 80.4319L71.6247 77.3084L53.8741 63.1079L51.3753 66.2314ZM34.8741 80.4319L52.6247 66.2314L50.1259 63.1079L32.3753 77.3084L34.8741 80.4319ZM30 25L30 78.0893H34L34 25H30ZM32.3753 77.3084C33.0301 76.7846 34 77.2508 34 78.0893H30C30 80.6048 32.9098 82.0033 34.8741 80.4319L32.3753 77.3084ZM53.8741 63.1079C52.7784 62.2314 51.2216 62.2314 50.1259 63.1079L52.6247 66.2314C52.2595 66.5236 51.7405 66.5236 51.3753 66.2314L53.8741 63.1079ZM70 78.0893C70 77.2508 70.9699 76.7846 71.6247 77.3084L69.1259 80.4319C71.0902 82.0033 74 80.6048 74 78.0893H70ZM33 22C31.3431 22 30 23.3431 30 25H34C34 25.5523 33.5523 26 33 26V22ZM71 26C70.4477 26 70 25.5523 70 25H74C74 23.3431 72.6569 22 71 22V26Z" fill="#F4F4F4"/>
</svg>
