<svg width="50" height="36" viewBox="0 0 50 36" fill="none" xmlns="http://www.w3.org/2000/svg">
<path d="M8.24097 16C7.1364 16 6.24097 16.8954 6.24097 18C6.24097 19.1046 7.1364 20 8.24097 20V16ZM22.9787 20C24.0833 20 24.9787 19.1046 24.9787 18C24.9787 16.8954 24.0833 16 22.9787 16V20ZM23.0001 16C21.8955 16 21.0001 16.8954 21.0001 18C21.0001 19.1046 21.8955 20 23.0001 20V16ZM46.0001 20C47.1046 20 48.0001 19.1046 48.0001 18C48.0001 16.8954 47.1046 16 46.0001 16V20ZM8.24097 20H22.9787V16H8.24097V20ZM23.0001 20H46.0001V16H23.0001V20Z" fill="#F4F4F4"/>
<path d="M23 2L9.12132 15.8787C7.94975 17.0503 7.94974 18.9497 9.12132 20.1213L23 34" stroke="#F4F4F4" stroke-width="4" stroke-linecap="round" stroke-linejoin="round"/>
</svg>
