<?xml version="1.0"?>
<svg xmlns="http://www.w3.org/2000/svg" xmlns:xlink="http://www.w3.org/1999/xlink" xmlns:svgjs="http://svgjs.com/svgjs" version="1.1" width="512" height="512" x="0" y="0" viewBox="0 0 64 64" style="enable-background:new 0 0 512 512" xml:space="preserve" class=""><g><g xmlns="http://www.w3.org/2000/svg" id="man-boy-avatar-male-person"><path d="m40 14a4 4 0 0 1 -4-4 4 4 0 0 1 -4 4h-12v9c0 .34.01.67.04 1s.07.65.12.97a11.986 11.986 0 0 0 3.35 6.52 12 12 0 0 0 12.49 2.82 12.006 12.006 0 0 0 7.84-9.34c.05-.32.09-.64.12-.97s.04-.66.04-1v-9z" fill="#ffd7a3" data-original="#ffc477" style="" class=""/><path d="m44 14v9c0 .34-.01.67-.04 1s-.07.65-.12.97a12.006 12.006 0 0 1 -7.84 9.34 11.8 11.8 0 0 1 -4 .69 12 12 0 0 1 -2-.17 11.082 11.082 0 0 0 2-.52 12.006 12.006 0 0 0 7.84-9.34c.05-.32.09-.64.12-.97s.04-.66.04-1v-9z" fill="#ffc881" data-original="#ffa733" style="" class=""/><path d="m38 39.53v8.47l-6-4 4-5z" fill="#ff653d" data-original="#ff7956" style="" class=""/><path d="m28 39 4 5-6 4v-8.47z" fill="#ff653d" data-original="#ff7956" style="" class=""/><path d="m55 50.17v10.83h-46v-10.83a8 8 0 0 1 5.96-7.74l11.04-2.9v8.47l6-4 6 4v-8.47l11.04 2.9a8 8 0 0 1 5.96 7.74z" fill="#cb4b4b" data-original="#fee9ab" style="" class=""/><path d="m55 50.17v10.83h-4v-10.83a8 8 0 0 0 -5.96-7.74l-7.04-1.85v-1.05l11.04 2.9a8 8 0 0 1 5.96 7.74z" fill="#483b36" data-original="#ffd422" style="" class=""/><path d="m44 16a4 4 0 1 1 0 8h-.04c.03-.33.04-.66.04-1z" fill="#ffd7a3" data-original="#ffc477" style="" class=""/><path d="m46 6v8h-6a4 4 0 0 1 -4-4v-5a2.006 2.006 0 0 1 2-2h5a3 3 0 0 1 3 3z" fill="#483b36" data-original="#ffd422" style="" class=""/><path d="m46 6v8h-4v-8a3 3 0 0 0 -3-3h4a3 3 0 0 1 3 3z" fill="#181818" data-original="#ebbf00" style="" class=""/><path d="m36 34.31v4.69l-4 5-4-5v-4.69a11.939 11.939 0 0 0 8 0z" fill="#ffd7a3" data-original="#ffc477" style="" class=""/><path d="m36 5v5a4 4 0 0 1 -4 4h-14v-7a4 4 0 0 1 4-4h12a2.006 2.006 0 0 1 2 2z" fill="#483b36" data-original="#ffd422" style="" class=""/><path d="m20.04 24h-.04a4 4 0 0 1 0-8v7c0 .34.01.67.04 1z" fill="#ffd7a3" data-original="#ffc477" style="" class=""/><path d="m29 21a3 3 0 0 0 -6 0h2a1 1 0 0 1 2 0z" fill="#000000" data-original="#000000" style="" class=""/><path d="m38 20a1 1 0 0 1 1 1h2a3 3 0 0 0 -6 0h2a1 1 0 0 1 1-1z" fill="#000000" data-original="#000000" style="" class=""/><path d="m49.29 41.46-12.29-3.23v-3.23a13.022 13.022 0 0 0 7.84-10.08 4.982 4.982 0 0 0 4.16-4.92 5.017 5.017 0 0 0 -4-4.9v-.1h1a1 1 0 0 0 1-1v-8a4 4 0 0 0 -4-4h-5a2.974 2.974 0 0 0 -2 .78 2.974 2.974 0 0 0 -2-.78h-12a5 5 0 0 0 -5 5v7a1 1 0 0 0 1 1h1v.1a4.994 4.994 0 0 0 .16 9.82 13.037 13.037 0 0 0 7.84 10.08v3.23l-12.3 3.23a9.03 9.03 0 0 0 -6.7 8.71v10.83a1 1 0 0 0 1 1h46a1 1 0 0 0 1-1v-10.83a9.028 9.028 0 0 0 -6.71-8.71zm-30.29-18.64a3.179 3.179 0 0 1 -1.12-.69 3 3 0 0 1 1.12-4.95zm28-2.82a3.022 3.022 0 0 1 -.87 2.12 2.951 2.951 0 0 1 -1.13.69v-5.63a3.01 3.01 0 0 1 2 2.82zm-10-15a1 1 0 0 1 1-1h5a2.006 2.006 0 0 1 2 2v7h-5a3.009 3.009 0 0 1 -3-3zm-18 8v-6a3.009 3.009 0 0 1 3-3h12a1 1 0 0 1 1 1v5a3.009 3.009 0 0 1 -3 3zm2 10v-8h11a4.994 4.994 0 0 0 4-2.03 4.994 4.994 0 0 0 4 2.03h3v8a11 11 0 0 1 -22 0zm15.37 17.13.63.17v5.83l-3.54-2.36zm-4.37 2.27-3-3.75v-3.01a12.68 12.68 0 0 0 6 0v3.01zm-5-2.1.63-.17 2.91 3.64-3.54 2.36zm27 19.7h-6v-6h-2v6h-28v-6h-2v6h-6v-9.83a7.019 7.019 0 0 1 5.21-6.77l9.79-2.58v7.18a.984.984 0 0 0 .53.88.963.963 0 0 0 1.02-.05l5.45-3.63 5.45 3.63a1 1 0 0 0 1.55-.83v-7.18l9.78 2.58a7.017 7.017 0 0 1 5.22 6.77z" fill="#000000" data-original="#000000" style="" class=""/><path d="m37 52h6v2h-6z" fill="#000000" data-original="#000000" style="" class=""/><path d="m37 28h-2c0 .249-1.064 1-3 1s-3-.751-3-1h-2c0 1.71 2.149 3 5 3s5-1.29 5-3z" fill="#000000" data-original="#000000" style="" class=""/></g></g></svg>
