<svg width="104" height="104" viewBox="0 0 104 104" fill="none" xmlns="http://www.w3.org/2000/svg">
<circle cx="52" cy="52" r="50" stroke="#F4F4F4" stroke-width="4" stroke-linecap="round" stroke-linejoin="round"/>
<path fill-rule="evenodd" clip-rule="evenodd" d="M28.8298 32.9491C26.2042 35.5746 24.7292 39.1356 24.7292 42.8486C24.7292 46.5617 26.2042 50.1226 28.8298 52.7481L42.9105 66.8289C42.9309 66.8494 42.9513 66.87 42.9717 66.8904L50.0428 73.9615C50.8238 74.7425 52.0902 74.7426 52.8712 73.9615L52.8714 73.9613L59.9425 66.8903L74.0844 52.7483C76.7099 50.1228 78.1849 46.5618 78.1849 42.8488C78.1849 39.1358 76.7099 35.5748 74.0844 32.9493C71.4589 30.3238 67.898 28.8488 64.1849 28.8488C60.4719 28.8488 56.9109 30.3238 54.2854 32.9493L51.4572 35.7776L48.6287 32.9491C46.0032 30.3236 42.4423 28.8486 38.7292 28.8486C35.0162 28.8486 31.4553 30.3236 28.8298 32.9491Z" fill="#F4F4F4"/>
<path d="M28.8298 32.9491L27.4155 31.5349L28.8298 32.9491ZM28.8298 52.7481L30.244 51.3339H30.244L28.8298 52.7481ZM42.9105 66.8289L44.3322 65.4222L44.3247 65.4147L42.9105 66.8289ZM42.9717 66.8904L44.3859 65.4762L42.9717 66.8904ZM50.0428 73.9615L48.6286 75.3757H48.6286L50.0428 73.9615ZM52.8712 73.9615L54.2854 75.3757C54.3074 75.3538 54.3288 75.3314 54.3496 75.3085L52.8712 73.9615ZM52.8714 73.9613L51.4572 72.5471C51.4353 72.569 51.4139 72.5914 51.393 72.6143L52.8714 73.9613ZM59.9425 66.8903L58.5282 65.476H58.5282L59.9425 66.8903ZM74.0844 52.7483L75.4986 54.1625L75.4986 54.1625L74.0844 52.7483ZM74.0844 32.9493L75.4986 31.5351V31.5351L74.0844 32.9493ZM64.1849 28.8488V26.8488V28.8488ZM54.2854 32.9493L52.8712 31.5351L54.2854 32.9493ZM51.4572 35.7776L50.043 37.1918C50.418 37.5669 50.9267 37.7776 51.4572 37.7776C51.9876 37.7776 52.4963 37.5669 52.8714 37.1918L51.4572 35.7776ZM48.6287 32.9491L50.043 31.5349V31.5349L48.6287 32.9491ZM26.7292 42.8486C26.7292 39.666 27.9935 36.6138 30.244 34.3634L27.4155 31.5349C24.415 34.5355 22.7292 38.6052 22.7292 42.8486H26.7292ZM30.244 51.3339C27.9935 49.0835 26.7292 46.0312 26.7292 42.8486H22.7292C22.7292 47.0921 24.415 51.1618 27.4155 54.1623L30.244 51.3339ZM44.3247 65.4147L30.244 51.3339L27.4155 54.1623L41.4963 68.2431L44.3247 65.4147ZM41.4888 68.2356C41.5116 68.2586 41.5345 68.2816 41.5575 68.3046L44.3859 65.4762C44.368 65.4583 44.3501 65.4403 44.3322 65.4222L41.4888 68.2356ZM41.5575 68.3046L48.6286 75.3757L51.457 72.5473L44.3859 65.4762L41.5575 68.3046ZM48.6286 75.3757C50.1907 76.9378 52.7233 76.9378 54.2854 75.3757L51.457 72.5473L51.457 72.5473L48.6286 75.3757ZM54.3496 75.3085L54.3498 75.3083L51.393 72.6143L51.3928 72.6145L54.3496 75.3085ZM58.5282 65.476L51.4572 72.5471L54.2856 75.3755L61.3567 68.3045L58.5282 65.476ZM61.3567 68.3045L75.4986 54.1625L72.6702 51.3341L58.5282 65.476L61.3567 68.3045ZM75.4986 54.1625C78.4992 51.1619 80.1849 47.0923 80.1849 42.8488H76.1849C76.1849 46.0314 74.9207 49.0837 72.6702 51.3341L75.4986 54.1625ZM80.1849 42.8488C80.1849 38.6053 78.4992 34.5357 75.4986 31.5351L72.6702 34.3635C74.9207 36.614 76.1849 39.6662 76.1849 42.8488H80.1849ZM75.4986 31.5351C72.4981 28.5345 68.4284 26.8488 64.1849 26.8488V30.8488C67.3675 30.8488 70.4198 32.1131 72.6702 34.3635L75.4986 31.5351ZM64.1849 26.8488C59.9415 26.8488 55.8718 28.5345 52.8712 31.5351L55.6996 34.3635C57.9501 32.1131 61.0023 30.8488 64.1849 30.8488V26.8488ZM52.8712 31.5351L50.043 34.3634L52.8714 37.1918L55.6996 34.3635L52.8712 31.5351ZM47.2145 34.3634L50.043 37.1918L52.8714 34.3634L50.043 31.5349L47.2145 34.3634ZM38.7292 30.8486C41.9118 30.8486 44.9641 32.1129 47.2145 34.3634L50.043 31.5349C47.0424 28.5343 42.9727 26.8486 38.7292 26.8486V30.8486ZM30.244 34.3634C32.4944 32.1129 35.5466 30.8486 38.7292 30.8486V26.8486C34.4858 26.8486 30.4161 28.5343 27.4155 31.5349L30.244 34.3634Z" fill="#F4F4F4"/>
<path fill-rule="evenodd" clip-rule="evenodd" d="M28.8298 32.9487C26.2042 35.5742 24.7292 39.1351 24.7292 42.8481C24.7292 46.5612 26.2042 50.1221 28.8298 52.7476L42.9105 66.8284C42.9309 66.849 42.9513 66.8695 42.9717 66.8899L50.0428 73.961C50.8238 74.7421 52.0902 74.7421 52.8712 73.961L52.8714 73.9608L59.9425 66.8898L74.0844 52.7478C76.7099 50.1223 78.1849 46.5613 78.1849 42.8483C78.1849 39.1353 76.7099 35.5743 74.0844 32.9488C71.4589 30.3233 67.898 28.8483 64.1849 28.8483C60.4719 28.8483 56.9109 30.3233 54.2854 32.9488L51.4572 35.7771L48.6287 32.9487C46.0032 30.3231 42.4423 28.8481 38.7292 28.8481C35.0162 28.8481 31.4553 30.3231 28.8298 32.9487Z" fill="#141414"/>
<path fill-rule="evenodd" clip-rule="evenodd" d="M58.4835 28.9125L54.4412 36.6196C54.3596 36.7752 54.4434 36.9663 54.6131 37.0118L55.7904 37.3272L57.2349 37.7143L60.4321 38.571C61.1308 38.7582 61.4057 39.6025 60.9512 40.1652L46.8351 57.6408C46.5919 57.9419 46.1198 57.6447 46.2861 57.2952L52.3337 44.5896C52.6023 44.0253 52.2933 43.3556 51.6896 43.1939L51.0789 43.0303L49.7256 42.6676L45.015 41.4054C44.4342 41.2498 44.1211 40.6204 44.3474 40.0632L47.672 31.8777C47.7486 31.9509 47.8244 32.025 47.8995 32.1001L50.7279 34.9286L53.5562 32.1003C54.9686 30.6879 56.6517 29.6085 58.4835 28.9125Z" fill="#F4F4F4"/>
<path d="M29.1005 32.1L27.6863 30.6858L29.1005 32.1ZM29.1005 51.899L30.5147 50.4848L30.5147 50.4848L29.1005 51.899ZM43.1813 65.9798L44.603 64.5731L44.5955 64.5656L43.1813 65.9798ZM43.2425 66.0413L44.6567 64.6271L44.6567 64.6271L43.2425 66.0413ZM50.3136 73.1124L48.8993 74.5266L48.8993 74.5266L50.3136 73.1124ZM53.142 73.1124L54.5562 74.5266C54.5781 74.5047 54.5995 74.4823 54.6204 74.4594L53.142 73.1124ZM53.1421 73.1122L51.7279 71.698C51.706 71.7199 51.6846 71.7423 51.6637 71.7652L53.1421 73.1122ZM60.2132 66.0411L58.799 64.6269L58.799 64.6269L60.2132 66.0411ZM74.3552 51.8992L75.7694 53.3134L75.7694 53.3134L74.3552 51.8992ZM74.3552 32.1002L75.7694 30.686L75.7694 30.686L74.3552 32.1002ZM64.4557 27.9997L64.4557 25.9997L64.4557 27.9997ZM54.5562 32.1002L53.142 30.686L54.5562 32.1002ZM51.7279 34.9285L50.3137 36.3427C50.6888 36.7177 51.1975 36.9285 51.7279 36.9285C52.2584 36.9285 52.7671 36.7177 53.1421 36.3427L51.7279 34.9285ZM48.8995 32.1L50.3137 30.6858L50.3137 30.6858L48.8995 32.1ZM27 41.9995C27 38.8169 28.2643 35.7647 30.5147 33.5142L27.6863 30.6858C24.6857 33.6864 23 37.756 23 41.9995H27ZM30.5147 50.4848C28.2643 48.2344 27 45.1821 27 41.9995H23C23 46.243 24.6857 50.3126 27.6863 53.3132L30.5147 50.4848ZM44.5955 64.5656L30.5147 50.4848L27.6863 53.3132L41.7671 67.394L44.5955 64.5656ZM41.7596 67.3864C41.7823 67.4095 41.8053 67.4325 41.8283 67.4555L44.6567 64.6271C44.6388 64.6092 44.6209 64.5912 44.603 64.5731L41.7596 67.3864ZM41.8283 67.4555L48.8993 74.5266L51.7278 71.6982L44.6567 64.6271L41.8283 67.4555ZM48.8993 74.5266C50.4614 76.0887 52.9941 76.0887 54.5562 74.5266L51.7278 71.6982L51.7278 71.6982L48.8993 74.5266ZM54.6204 74.4594L54.6205 74.4592L51.6637 71.7652L51.6636 71.7654L54.6204 74.4594ZM58.799 64.6269L51.7279 71.698L54.5563 74.5264L61.6274 67.4554L58.799 64.6269ZM61.6274 67.4554L75.7694 53.3134L72.941 50.485L58.799 64.6269L61.6274 67.4554ZM75.7694 53.3134C78.77 50.3128 80.4557 46.2432 80.4557 41.9997H76.4557C76.4557 45.1823 75.1914 48.2345 72.941 50.485L75.7694 53.3134ZM80.4557 41.9997C80.4557 37.7562 78.77 33.6866 75.7694 30.686L72.941 33.5144C75.1914 35.7648 76.4557 38.8171 76.4557 41.9997H80.4557ZM75.7694 30.686C72.7688 27.6854 68.6991 25.9997 64.4557 25.9997L64.4557 29.9997C67.6383 29.9997 70.6905 31.264 72.941 33.5144L75.7694 30.686ZM64.4557 25.9997C60.2122 25.9997 56.1426 27.6854 53.142 30.686L55.9704 33.5144C58.2208 31.264 61.2731 29.9997 64.4557 29.9997L64.4557 25.9997ZM53.142 30.686L50.3137 33.5142L53.1421 36.3427L55.9704 33.5144L53.142 30.686ZM47.4853 33.5142L50.3137 36.3427L53.1421 33.5142L50.3137 30.6858L47.4853 33.5142ZM39 29.9995C42.1826 29.9995 45.2348 31.2638 47.4853 33.5142L50.3137 30.6858C47.3131 27.6852 43.2435 25.9995 39 25.9995V29.9995ZM30.5147 33.5142C32.7652 31.2638 35.8174 29.9995 39 29.9995V25.9995C34.7565 25.9995 30.6869 27.6852 27.6863 30.6858L30.5147 33.5142Z" fill="#F4F4F4"/>
</svg>
