<svg width="104" height="104" viewBox="0 0 104 104" fill="none" xmlns="http://www.w3.org/2000/svg">
<circle cx="52" cy="52" r="50" stroke="#F4F4F4" stroke-width="4" stroke-linecap="round" stroke-linejoin="round"/>
<path d="M28.8298 32.9492L27.4155 31.535L28.8298 32.9492ZM28.8298 52.7482L30.244 51.334L30.244 51.334L28.8298 52.7482ZM42.9105 66.8289L44.3322 65.4223L44.3247 65.4147L42.9105 66.8289ZM42.9717 66.8905L44.3859 65.4763L44.3859 65.4763L42.9717 66.8905ZM50.0428 73.9616L48.6286 75.3758L48.6286 75.3758L50.0428 73.9616ZM52.8712 73.9616L54.2854 75.3758C54.3074 75.3539 54.3288 75.3314 54.3496 75.3085L52.8712 73.9616ZM52.8714 73.9614L51.4572 72.5472C51.4353 72.5691 51.4139 72.5915 51.393 72.6144L52.8714 73.9614ZM59.9425 66.8903L58.5282 65.4761L58.5282 65.4761L59.9425 66.8903ZM74.0844 52.7484L75.4986 54.1626L75.4986 54.1626L74.0844 52.7484ZM74.0844 32.9494L75.4986 31.5352L75.4986 31.5352L74.0844 32.9494ZM64.1849 28.8489L64.1849 26.8489L64.1849 28.8489ZM54.2854 32.9494L52.8712 31.5352L54.2854 32.9494ZM51.4572 35.7776L50.043 37.1918C50.418 37.5669 50.9267 37.7776 51.4572 37.7776C51.9876 37.7776 52.4963 37.5669 52.8714 37.1918L51.4572 35.7776ZM48.6287 32.9492L50.043 31.535L50.043 31.535L48.6287 32.9492ZM26.7292 42.8487C26.7292 39.6661 27.9935 36.6139 30.244 34.3634L27.4155 31.535C24.415 34.5356 22.7292 38.6052 22.7292 42.8487H26.7292ZM30.244 51.334C27.9935 49.0835 26.7292 46.0313 26.7292 42.8487H22.7292C22.7292 47.0922 24.415 51.1618 27.4155 54.1624L30.244 51.334ZM44.3247 65.4147L30.244 51.334L27.4155 54.1624L41.4963 68.2432L44.3247 65.4147ZM41.4888 68.2356C41.5116 68.2587 41.5345 68.2817 41.5575 68.3047L44.3859 65.4763C44.368 65.4584 44.3501 65.4404 44.3322 65.4223L41.4888 68.2356ZM41.5575 68.3047L48.6286 75.3758L51.457 72.5473L44.3859 65.4763L41.5575 68.3047ZM48.6286 75.3758C50.1907 76.9379 52.7233 76.9379 54.2854 75.3758L51.457 72.5474L51.457 72.5473L48.6286 75.3758ZM54.3496 75.3085L54.3498 75.3084L51.393 72.6144L51.3928 72.6146L54.3496 75.3085ZM58.5282 65.4761L51.4572 72.5472L54.2856 75.3756L61.3567 68.3045L58.5282 65.4761ZM61.3567 68.3045L75.4986 54.1626L72.6702 51.3342L58.5282 65.4761L61.3567 68.3045ZM75.4986 54.1626C78.4992 51.162 80.1849 47.0923 80.1849 42.8489H76.1849C76.1849 46.0315 74.9206 49.0837 72.6702 51.3342L75.4986 54.1626ZM80.1849 42.8489C80.1849 38.6054 78.4992 34.5357 75.4986 31.5352L72.6702 34.3636C74.9207 36.614 76.1849 39.6663 76.1849 42.8489H80.1849ZM75.4986 31.5352C72.4981 28.5346 68.4284 26.8489 64.1849 26.8489L64.1849 30.8489C67.3675 30.8489 70.4198 32.1131 72.6702 34.3636L75.4986 31.5352ZM64.1849 26.8489C59.9415 26.8489 55.8718 28.5346 52.8712 31.5352L55.6997 34.3636C57.9501 32.1132 61.0023 30.8489 64.1849 30.8489L64.1849 26.8489ZM52.8712 31.5352L50.043 34.3634L52.8714 37.1918L55.6997 34.3636L52.8712 31.5352ZM47.2145 34.3634L50.043 37.1918L52.8714 34.3634L50.043 31.535L47.2145 34.3634ZM38.7292 30.8487C41.9118 30.8487 44.9641 32.113 47.2145 34.3634L50.043 31.535C47.0424 28.5344 42.9727 26.8487 38.7292 26.8487V30.8487ZM30.244 34.3634C32.4944 32.113 35.5467 30.8487 38.7292 30.8487V26.8487C34.4858 26.8487 30.4161 28.5344 27.4155 31.535L30.244 34.3634Z" fill="#F4F4F4"/>
<path d="M59.0154 29.8378L60.9292 30.4186C61.1522 29.6836 60.9346 28.8858 60.3693 28.3658C59.8039 27.8458 58.9907 27.6955 58.2768 27.9792L59.0154 29.8378ZM58.943 30.014L57.1719 29.0851L57.1719 29.0851L58.943 30.014ZM54.4412 38.5972L52.6701 37.6683L52.6701 37.6683L54.4412 38.5972ZM54.6131 38.9894L54.0954 40.9213L54.0954 40.9213L54.6131 38.9894ZM55.7904 39.3049L55.2728 41.2367L55.2728 41.2367L55.7904 39.3049ZM57.2349 39.6919L56.7172 41.6238L56.7172 41.6238L57.2349 39.6919ZM60.4321 40.5486L60.9497 38.6168L60.9497 38.6168L60.4321 40.5486ZM60.9512 42.1429L59.3953 40.8862L59.3953 40.8862L60.9512 42.1429ZM46.8351 59.6185L48.3909 60.8752L48.3909 60.8752L46.8351 59.6185ZM46.2861 59.2729L48.092 60.1324L48.092 60.1324L46.2861 59.2729ZM52.3337 46.5672L54.1396 47.4268L54.1396 47.4268L52.3337 46.5672ZM51.6896 45.1715L51.172 47.1034L51.172 47.1034L51.6896 45.1715ZM51.0789 45.0079L51.5965 43.0761L51.5965 43.076L51.0789 45.0079ZM49.7256 44.6453L49.2079 46.5771L49.2079 46.5771L49.7256 44.6453ZM45.015 43.3831L45.5327 41.4512L45.5327 41.4512L45.015 43.3831ZM44.3474 42.0409L42.4944 41.2883L42.4944 41.2883L44.3474 42.0409ZM48.2052 32.5425L49.559 31.0703C49.0764 30.6265 48.407 30.4475 47.7673 30.591C47.1276 30.7345 46.5989 31.1825 46.3522 31.7899L48.2052 32.5425ZM48.6288 32.9487L50.0431 31.5345L50.0431 31.5345L48.6288 32.9487ZM51.4573 35.7771L50.0431 37.1914C50.4181 37.5664 50.9268 37.7771 51.4573 37.7771C51.9877 37.7771 52.4964 37.5664 52.8715 37.1914L51.4573 35.7771ZM54.2855 32.9489L52.8713 31.5347L52.8713 31.5347L54.2855 32.9489ZM57.1015 29.257C57.1199 29.1966 57.1436 29.1389 57.1719 29.0851L60.7142 30.943C60.8029 30.7739 60.8746 30.5983 60.9292 30.4186L57.1015 29.257ZM57.1719 29.0851L52.6701 37.6683L56.2124 39.5262L60.7142 30.943L57.1719 29.0851ZM52.6701 37.6683C51.9932 38.9588 52.6878 40.5441 54.0954 40.9213L55.1307 37.0576C56.1989 37.3438 56.7261 38.5468 56.2124 39.5262L52.6701 37.6683ZM54.0954 40.9213L55.2728 41.2367L56.3081 37.373L55.1307 37.0576L54.0954 40.9213ZM55.2728 41.2367L56.7172 41.6238L57.7525 37.7601L56.3081 37.373L55.2728 41.2367ZM56.7172 41.6238L59.9144 42.4805L60.9497 38.6168L57.7525 37.7601L56.7172 41.6238ZM59.9144 42.4805C59.2157 42.2932 58.9407 41.4489 59.3953 40.8862L62.507 43.3996C63.8707 41.7114 63.046 39.1784 60.9497 38.6168L59.9144 42.4805ZM59.3953 40.8862L45.2793 58.3617L48.3909 60.8752L62.507 43.3996L59.3953 40.8862ZM45.2793 58.3617C46.5254 56.819 48.9443 58.3418 48.092 60.1324L44.4803 58.4133C43.2953 60.9029 46.6584 63.0201 48.3909 60.8752L45.2793 58.3617ZM48.092 60.1324L54.1396 47.4268L50.5278 45.7077L44.4803 58.4133L48.092 60.1324ZM54.1396 47.4268C54.9454 45.7339 54.0182 43.7249 52.2072 43.2397L51.172 47.1034C50.5683 46.9416 50.2592 46.272 50.5278 45.7077L54.1396 47.4268ZM52.2072 43.2397L51.5965 43.0761L50.5613 46.9398L51.172 47.1034L52.2072 43.2397ZM51.5965 43.076L50.2432 42.7134L49.2079 46.5771L50.5613 46.9398L51.5965 43.076ZM50.2432 42.7134L45.5327 41.4512L44.4974 45.315L49.2079 46.5771L50.2432 42.7134ZM45.5327 41.4512C46.1136 41.6069 46.4267 42.2363 46.2004 42.7935L42.4944 41.2883C41.8155 42.9597 42.7548 44.848 44.4974 45.315L45.5327 41.4512ZM46.2004 42.7935L50.0582 33.2951L46.3522 31.7899L42.4944 41.2883L46.2004 42.7935ZM50.0431 31.5345C49.8846 31.3761 49.7232 31.2213 49.559 31.0703L46.8515 34.0147C46.9747 34.128 47.0958 34.2441 47.2146 34.3629L50.0431 31.5345ZM52.8715 34.3629L50.0431 31.5345L47.2146 34.3629L50.0431 37.1914L52.8715 34.3629ZM52.8713 31.5347L50.0431 34.3629L52.8715 37.1914L55.6997 34.3631L52.8713 31.5347ZM58.2768 27.9792C56.2708 28.7763 54.4273 29.9787 52.8713 31.5347L55.6997 34.3631C56.8667 33.1961 58.2492 32.2944 59.7539 31.6965L58.2768 27.9792Z" fill="#F4F4F4"/>
</svg>
