<svg width="23" height="20" viewBox="0 0 23 20" fill="none" xmlns="http://www.w3.org/2000/svg">
<path d="M13.6451 13.4448L13.5053 12.8334H14.1325H19.9167C20.6948 12.8334 21.25 12.2634 21.25 11.6667V10C21.25 9.85984 21.2216 9.72904 21.1655 9.59652L18.4011 3.72981L18.401 3.72983L18.3988 3.72501C18.2119 3.31723 17.7485 3.00002 17.1667 3.00002H8.91671C8.1386 3.00002 7.58337 3.56994 7.58337 4.16669V12.5C7.58337 12.8056 7.71628 13.0889 7.95547 13.3005L7.95551 13.3005L7.96082 13.3053L13.6577 18.4922L14.2912 17.9217C14.2915 17.9215 14.2917 17.9212 14.292 17.921C14.4395 17.7865 14.5241 17.6094 14.5305 17.4303L14.5091 17.2234L13.6451 13.4448ZM4.75004 12V3.00002H2.08337V12H4.75004Z" stroke="white"/>
</svg>
