<svg width="104" height="104" viewBox="0 0 104 104" fill="none" xmlns="http://www.w3.org/2000/svg">
<circle cx="52" cy="52" r="50" stroke="#F4F4F4" stroke-width="4" stroke-linecap="round" stroke-linejoin="round"/>
<path fill-rule="evenodd" clip-rule="evenodd" d="M58.4835 28.9124L54.4412 36.6195C54.3596 36.7751 54.4434 36.9662 54.6131 37.0117L55.7904 37.3272L57.2349 37.7142L60.4321 38.5709C61.1308 38.7581 61.4057 39.6024 60.9512 40.1652L46.8351 57.6408C46.5919 57.9419 46.1198 57.6447 46.2861 57.2952L52.3337 44.5895C52.6023 44.0252 52.2933 43.3556 51.6896 43.1938L51.0789 43.0302L49.7256 42.6676L45.015 41.4054C44.4342 41.2498 44.1211 40.6203 44.3474 40.0632L47.672 31.8776C47.7486 31.9508 47.8244 32.025 47.8995 32.1001L50.7279 34.9285L53.5562 32.1002C54.9686 30.6879 56.6517 29.6084 58.4835 28.9124Z" fill="#F4F4F4"/>
<path d="M29.1005 33.1L27.6863 31.6858L29.1005 33.1ZM29.1005 52.899L30.5147 51.4848L30.5147 51.4848L29.1005 52.899ZM43.1813 66.9798L44.603 65.5731L44.5955 65.5656L43.1813 66.9798ZM43.2425 67.0413L44.6567 65.6271L44.6567 65.6271L43.2425 67.0413ZM50.3136 74.1124L48.8993 75.5266L48.8993 75.5266L50.3136 74.1124ZM53.142 74.1124L54.5562 75.5266C54.5781 75.5047 54.5995 75.4823 54.6204 75.4594L53.142 74.1124ZM53.1421 74.1122L51.7279 72.698C51.706 72.7199 51.6846 72.7423 51.6637 72.7652L53.1421 74.1122ZM60.2132 67.0411L58.799 65.6269L58.799 65.6269L60.2132 67.0411ZM74.3552 52.8992L75.7694 54.3134L75.7694 54.3134L74.3552 52.8992ZM74.3552 33.1002L75.7694 31.686L75.7694 31.686L74.3552 33.1002ZM64.4557 28.9997L64.4557 26.9997L64.4557 28.9997ZM54.5562 33.1002L53.142 31.686L54.5562 33.1002ZM51.7279 35.9285L50.3137 37.3427C50.6888 37.7177 51.1975 37.9285 51.7279 37.9285C52.2584 37.9285 52.7671 37.7177 53.1421 37.3427L51.7279 35.9285ZM48.8995 33.1L50.3137 31.6858L50.3137 31.6858L48.8995 33.1ZM27 42.9995C27 39.8169 28.2643 36.7647 30.5147 34.5142L27.6863 31.6858C24.6857 34.6864 23 38.756 23 42.9995H27ZM30.5147 51.4848C28.2643 49.2344 27 46.1821 27 42.9995H23C23 47.243 24.6857 51.3126 27.6863 54.3132L30.5147 51.4848ZM44.5955 65.5656L30.5147 51.4848L27.6863 54.3132L41.7671 68.394L44.5955 65.5656ZM41.7596 68.3864C41.7823 68.4095 41.8053 68.4325 41.8283 68.4555L44.6567 65.6271C44.6388 65.6092 44.6209 65.5912 44.603 65.5731L41.7596 68.3864ZM41.8283 68.4555L48.8993 75.5266L51.7278 72.6982L44.6567 65.6271L41.8283 68.4555ZM48.8993 75.5266C50.4614 77.0887 52.9941 77.0887 54.5562 75.5266L51.7278 72.6982L51.7278 72.6982L48.8993 75.5266ZM54.6204 75.4594L54.6205 75.4592L51.6637 72.7652L51.6636 72.7654L54.6204 75.4594ZM58.799 65.6269L51.7279 72.698L54.5563 75.5264L61.6274 68.4554L58.799 65.6269ZM61.6274 68.4554L75.7694 54.3134L72.941 51.485L58.799 65.6269L61.6274 68.4554ZM75.7694 54.3134C78.77 51.3128 80.4557 47.2432 80.4557 42.9997H76.4557C76.4557 46.1823 75.1914 49.2345 72.941 51.485L75.7694 54.3134ZM80.4557 42.9997C80.4557 38.7562 78.77 34.6866 75.7694 31.686L72.941 34.5144C75.1914 36.7648 76.4557 39.8171 76.4557 42.9997H80.4557ZM75.7694 31.686C72.7688 28.6854 68.6991 26.9997 64.4557 26.9997L64.4557 30.9997C67.6383 30.9997 70.6905 32.264 72.941 34.5144L75.7694 31.686ZM64.4557 26.9997C60.2122 26.9997 56.1426 28.6854 53.142 31.686L55.9704 34.5144C58.2208 32.264 61.2731 30.9997 64.4557 30.9997L64.4557 26.9997ZM53.142 31.686L50.3137 34.5142L53.1421 37.3427L55.9704 34.5144L53.142 31.686ZM47.4853 34.5142L50.3137 37.3427L53.1421 34.5142L50.3137 31.6858L47.4853 34.5142ZM39 30.9995C42.1826 30.9995 45.2348 32.2638 47.4853 34.5142L50.3137 31.6858C47.3131 28.6852 43.2435 26.9995 39 26.9995V30.9995ZM30.5147 34.5142C32.7652 32.2638 35.8174 30.9995 39 30.9995V26.9995C34.7565 26.9995 30.6869 28.6852 27.6863 31.6858L30.5147 34.5142Z" fill="#F4F4F4"/>
</svg>
