<svg width="120" height="120" viewBox="0 0 120 120" fill="none" xmlns="http://www.w3.org/2000/svg">
<circle cx="60" cy="60" r="50" stroke="#85BB65" stroke-width="4" stroke-linecap="round" stroke-linejoin="round"/>
<path opacity="0.85" d="M54.8115 57.5911L54.2851 59.5206L54.2851 59.5206L54.8115 57.5911ZM60.9333 59.2613L61.4945 57.3416C61.4829 57.3382 61.4713 57.335 61.4597 57.3318L60.9333 59.2613ZM66.0488 60.7566L65.4877 62.6762L65.4877 62.6762L66.0488 60.7566ZM48 70.4809C48 69.3763 47.1046 68.4809 46 68.4809C44.8954 68.4809 44 69.3763 44 70.4809H48ZM71.0667 48.5191C71.0667 49.6237 71.9621 50.5191 73.0667 50.5191C74.1712 50.5191 75.0667 49.6237 75.0667 48.5191L71.0667 48.5191ZM58 36.5833C58 37.6879 58.8954 38.5833 60 38.5833C61.1046 38.5833 62 37.6879 62 36.5833L58 36.5833ZM62 32C62 30.8954 61.1046 30 60 30C58.8954 30 58 30.8954 58 32H62ZM58 87C58 88.1046 58.8954 89 60 89C61.1046 89 62 88.1046 62 87H58ZM62 82.4167C62 81.3121 61.1046 80.4167 60 80.4167C58.8954 80.4167 58 81.3121 58 82.4167H62ZM61.6083 34.5833L57.6257 34.5833V38.5833L61.6083 38.5833V34.5833ZM57.4583 84.4167H62.948V80.4167H57.4583V84.4167ZM54.2851 59.5206L60.4069 61.1908L61.4597 57.3318L55.3379 55.6617L54.2851 59.5206ZM60.3722 61.181L65.4877 62.6762L66.6099 58.8369L61.4945 57.3416L60.3722 61.181ZM48 70.9583V70.4809H44V70.9583H48ZM71.0667 48.0417V48.5191L75.0667 48.5191V48.0417L71.0667 48.0417ZM76 71.3647C76 65.5666 72.1751 60.4636 66.6099 58.8369L65.4877 62.6762C69.3473 63.8044 72 67.3435 72 71.3647H76ZM44.9333 47.2757C44.9333 52.999 48.7637 58.0143 54.2851 59.5206L55.3379 55.6617C51.5565 54.63 48.9333 51.1953 48.9333 47.2757H44.9333ZM62.948 84.4167C70.1564 84.4167 76 78.5731 76 71.3647H72C72 76.3639 67.9473 80.4167 62.948 80.4167V84.4167ZM57.4583 80.4167C52.2346 80.4167 48 76.182 48 70.9583H44C44 78.3912 50.0255 84.4167 57.4583 84.4167V80.4167ZM61.6083 38.5833C66.832 38.5833 71.0667 42.818 71.0667 48.0417L75.0667 48.0417C75.0667 40.6088 69.0412 34.5833 61.6083 34.5833V38.5833ZM57.6257 34.5833C50.6159 34.5833 44.9333 40.2659 44.9333 47.2757H48.9333C48.9333 42.4751 52.825 38.5833 57.6257 38.5833V34.5833ZM62 36.5833V32H58V36.5833L62 36.5833ZM62 87V82.4167H58V87H62Z" fill="#85BB65"/>
</svg>
