<svg width="28" height="52" viewBox="0 0 28 52" fill="none" xmlns="http://www.w3.org/2000/svg">
<path opacity="0.85" d="M9.64817 24.3606L10.1835 22.4336L9.64817 24.3606ZM14.8 25.7917L15.3705 23.8748C15.3588 23.8713 15.3471 23.8679 15.3353 23.8646L14.8 25.7917ZM19.0909 27.0687L19.6615 25.1518L19.0909 27.0687ZM4 35.5833C4 34.4788 3.10457 33.5833 2 33.5833C0.89543 33.5833 0 34.4788 0 35.5833H4ZM23.2 16.4167C23.2 17.5212 24.0954 18.4167 25.2 18.4167C26.3046 18.4167 27.2 17.5212 27.2 16.4167H23.2ZM12 6C12 7.10457 12.8954 8 14 8C15.1046 8 16 7.10457 16 6L12 6ZM16 2C16 0.89543 15.1046 0 14 0C12.8954 0 12 0.89543 12 2L16 2ZM12 50C12 51.1046 12.8954 52 14 52C15.1046 52 16 51.1046 16 50L12 50ZM16 46C16 44.8954 15.1046 44 14 44C12.8954 44 12 44.8954 12 46L16 46ZM15.2 4L12.1509 4L12.1509 8H15.2L15.2 4ZM12 48L16.3336 48V44L12 44V48ZM9.11288 26.2876L14.2647 27.7187L15.3353 23.8646L10.1835 22.4336L9.11288 26.2876ZM14.2295 27.7086L18.5204 28.9856L19.6615 25.1518L15.3705 23.8748L14.2295 27.7086ZM4 36V35.5833H0L0 36H4ZM23.2 16V16.4167H27.2V16H23.2ZM28 36.3336C28 31.1721 24.6084 26.6241 19.6615 25.1518L18.5204 28.9856C21.7713 29.9531 24 32.9418 24 36.3336H28ZM0.8 15.3509C0.8 20.4498 4.2 24.9229 9.11288 26.2876L10.1835 22.4336C7.00185 21.5498 4.8 18.6529 4.8 15.3509L0.8 15.3509ZM16.3336 48C22.7768 48 28 42.7768 28 36.3336H24C24 40.5676 20.5676 44 16.3336 44V48ZM12 44C7.58172 44 4 40.4183 4 36H0C0 42.6274 5.37258 48 12 48V44ZM15.2 8C19.6183 8 23.2 11.5817 23.2 16H27.2C27.2 9.37258 21.8274 4 15.2 4L15.2 8ZM12.1509 4C5.88195 4 0.8 9.08196 0.8 15.3509L4.8 15.3509C4.8 11.2911 8.09109 8 12.1509 8L12.1509 4ZM16 6L16 2L12 2L12 6L16 6ZM16 50L16 46L12 46L12 50L16 50Z" fill="#85BB65"/>
</svg>
