<svg width="63" height="62" viewBox="0 0 63 62" fill="none" xmlns="http://www.w3.org/2000/svg">
<path d="M28.4 13.7417C29.5046 13.7417 30.4 12.8463 30.4 11.7417C30.4 10.6371 29.5046 9.7417 28.4 9.7417V13.7417ZM52 33.342C52 32.2374 51.1046 31.342 50 31.342C48.8954 31.342 48 32.2374 48 33.342H52ZM0 13.7417L0 57.7417H4L4 13.7417H0ZM4 61.7417L48 61.7417V57.7417L4 57.7417L4 61.7417ZM28.4 9.7417L4 9.7417V13.7417L28.4 13.7417V9.7417ZM52 57.7417L52 33.342H48L48 57.7417H52ZM48 61.7417C50.2091 61.7417 52 59.9508 52 57.7417H48V57.7417V61.7417ZM0 57.7417C0 59.9508 1.79086 61.7417 4 61.7417L4 57.7417H0ZM4 13.7417L4 13.7417V9.7417C1.79085 9.7417 0 11.5326 0 13.7417H4Z" fill="#F4F4F4"/>
<path d="M53.7719 3.00233C52.9909 2.22129 51.7245 2.22129 50.9435 3.00233C50.1624 3.78338 50.1624 5.04971 50.9435 5.83076L53.7719 3.00233ZM15.8372 44.8921L17.8208 45.1481L17.8208 45.1481L15.8372 44.8921ZM17.5343 46.5892L17.2784 44.6056L17.2784 44.6056L17.5343 46.5892ZM50.9435 5.83076L56.6004 11.4876L59.4288 8.65919L53.7719 3.00233L50.9435 5.83076ZM22.1139 34.6557L50.9388 5.83076L48.1104 3.00233L19.2854 31.8273L22.1139 34.6557ZM17.8208 45.1481L18.1285 42.7636L14.1614 42.2517L13.8537 44.6362L17.8208 45.1481ZM17.6951 46.1223L17.8208 45.1481L13.8537 44.6362L13.728 45.6104L17.6951 46.1223ZM17.2784 44.6056L16.3041 44.7314L16.816 48.6985L17.7902 48.5728L17.2784 44.6056ZM19.6628 44.298L17.2784 44.6056L17.7902 48.5728L20.1747 48.2651L19.6628 44.298ZM56.6004 11.4829L27.7707 40.3126L30.5992 43.141L59.4288 14.3114L56.6004 11.4829ZM20.1747 48.2651C24.1203 47.756 27.7861 45.9541 30.5992 43.141L27.7707 40.3126C25.5828 42.5005 22.7316 43.902 19.6628 44.298L20.1747 48.2651ZM13.728 45.6104C13.4967 47.403 15.0234 48.9298 16.816 48.6985L16.3041 44.7314C17.1116 44.6272 17.7993 45.3149 17.6951 46.1223L13.728 45.6104ZM19.2854 31.8273C16.4724 34.6404 14.6705 38.3061 14.1614 42.2517L18.1285 42.7636C18.5244 39.6948 19.9259 36.8437 22.1139 34.6557L19.2854 31.8273ZM53.7719 3.00233C52.2085 1.43895 49.6738 1.43895 48.1104 3.00233L50.9388 5.83076C50.9408 5.82874 50.9415 5.82842 50.9409 5.82886C50.9403 5.82923 50.9396 5.82962 50.9389 5.82989C50.9378 5.83032 50.9387 5.8298 50.9412 5.8298C50.9436 5.8298 50.9445 5.83032 50.9434 5.82989C50.9428 5.82962 50.942 5.82923 50.9415 5.82886C50.9408 5.82842 50.9415 5.82874 50.9435 5.83076L53.7719 3.00233ZM56.6004 11.4876C56.602 11.4893 56.6021 11.4896 56.6014 11.4886C56.6008 11.4877 56.6002 11.4866 56.5998 11.4855C56.599 11.4837 56.5994 11.4836 56.5994 11.4853C56.5994 11.4869 56.599 11.4869 56.5998 11.4851C56.6002 11.484 56.6008 11.4829 56.6014 11.4819C56.6021 11.4809 56.602 11.4813 56.6004 11.4829L59.4288 14.3114C60.9896 12.7506 60.9896 10.22 59.4288 8.65919L56.6004 11.4876Z" fill="#F4F4F4"/>
<path d="M53.7719 3.00234C52.9909 2.22129 51.7246 2.22129 50.9435 3.00234C50.1625 3.78339 50.1625 5.04972 50.9435 5.83077L53.7719 3.00234ZM15.8373 44.8922L17.8208 45.1481L17.8208 45.1481L15.8373 44.8922ZM17.5343 46.5892L17.2784 44.6057L17.2784 44.6057L17.5343 46.5892ZM19.9188 46.2815L20.1747 48.2651L19.9188 46.2815ZM29.185 41.7268L27.7707 40.3126L29.185 41.7268ZM20.6997 33.2415L19.2855 31.8273L20.6997 33.2415ZM16.1449 42.5077L14.1614 42.2517L16.1449 42.5077ZM49.5246 4.41656L50.9388 5.83077L49.5246 4.41656ZM58.0146 12.8972L59.4288 14.3114L58.0146 12.8972ZM50.9435 5.83077L56.6004 11.4876L59.4288 8.65919L53.7719 3.00234L50.9435 5.83077ZM22.1139 34.6557L50.9388 5.83077L48.1104 3.00234L19.2855 31.8273L22.1139 34.6557ZM17.8208 45.1481L18.1285 42.7636L14.1614 42.2517L13.8537 44.6362L17.8208 45.1481ZM17.6951 46.1223L17.8208 45.1481L13.8537 44.6362L13.728 45.6104L17.6951 46.1223ZM17.2784 44.6057L16.3041 44.7314L16.816 48.6985L17.7903 48.5728L17.2784 44.6057ZM19.6628 44.298L17.2784 44.6057L17.7903 48.5728L20.1747 48.2651L19.6628 44.298ZM56.6004 11.483L27.7707 40.3126L30.5992 43.141L59.4288 14.3114L56.6004 11.483ZM20.1747 48.2651C24.1203 47.756 27.7861 45.9541 30.5992 43.141L27.7707 40.3126C25.5828 42.5005 22.7316 43.902 19.6628 44.298L20.1747 48.2651ZM13.728 45.6104C13.4967 47.403 15.0234 48.9298 16.816 48.6985L16.3041 44.7314C17.1116 44.6272 17.7993 45.3149 17.6951 46.1223L13.728 45.6104ZM19.2855 31.8273C16.4724 34.6404 14.6705 38.3062 14.1614 42.2517L18.1285 42.7636C18.5245 39.6948 19.9259 36.8437 22.1139 34.6557L19.2855 31.8273ZM53.7719 3.00234C52.2085 1.43895 49.6738 1.43896 48.1104 3.00234L50.9388 5.83077C50.9409 5.82875 50.9415 5.82843 50.9409 5.82887C50.9403 5.82924 50.9396 5.82963 50.9389 5.8299C50.9379 5.83033 50.9387 5.8298 50.9412 5.8298C50.9437 5.8298 50.9445 5.83033 50.9434 5.8299C50.9428 5.82963 50.942 5.82924 50.9415 5.82887C50.9408 5.82843 50.9415 5.82875 50.9435 5.83077L53.7719 3.00234ZM56.6004 11.4876C56.6021 11.4893 56.6021 11.4897 56.6014 11.4886C56.6008 11.4877 56.6002 11.4866 56.5998 11.4855C56.599 11.4837 56.5994 11.4837 56.5994 11.4853C56.5994 11.4869 56.599 11.4869 56.5998 11.4851C56.6002 11.484 56.6008 11.4829 56.6014 11.4819C56.6021 11.4809 56.6021 11.4813 56.6004 11.483L59.4288 14.3114C60.9896 12.7506 60.9896 10.22 59.4288 8.65919L56.6004 11.4876Z" fill="#F4F4F4"/>
<path d="M42.1458 11.8037L50.6264 20.2843" stroke="#F4F4F4" stroke-width="4" stroke-linecap="round" stroke-linejoin="round"/>
</svg>
