<svg width="104" height="104" viewBox="0 0 104 104" fill="none" xmlns="http://www.w3.org/2000/svg">
<circle cx="52" cy="52" r="50" stroke="#F4F4F4" stroke-width="4" stroke-linecap="round" stroke-linejoin="round"/>
<path fill-rule="evenodd" clip-rule="evenodd" d="M28.8298 32.9491C26.2042 35.5746 24.7292 39.1356 24.7292 42.8486C24.7292 46.5617 26.2042 50.1226 28.8298 52.7481L42.9105 66.8289C42.9309 66.8494 42.9513 66.87 42.9717 66.8904L50.0428 73.9615C50.8238 74.7425 52.0902 74.7426 52.8712 73.9615L52.8714 73.9613L59.9425 66.8903L74.0844 52.7483C76.7099 50.1228 78.1849 46.5618 78.1849 42.8488C78.1849 39.1358 76.7099 35.5748 74.0844 32.9493C71.4589 30.3238 67.898 28.8488 64.1849 28.8488C60.4719 28.8488 56.9109 30.3238 54.2854 32.9493L51.4572 35.7776L48.6287 32.9491C46.0032 30.3236 42.4423 28.8486 38.7292 28.8486C35.0162 28.8486 31.4553 30.3236 28.8298 32.9491Z" fill="#F4F4F4"/>
<path d="M28.8298 32.9491L27.4155 31.5349L28.8298 32.9491ZM28.8298 52.7481L30.244 51.3339L30.244 51.3339L28.8298 52.7481ZM42.9105 66.8289L44.3322 65.4222L44.3247 65.4147L42.9105 66.8289ZM42.9717 66.8904L44.3859 65.4762L44.3859 65.4762L42.9717 66.8904ZM50.0428 73.9615L48.6286 75.3757L48.6286 75.3757L50.0428 73.9615ZM52.8712 73.9615L54.2854 75.3757C54.3074 75.3538 54.3288 75.3314 54.3496 75.3085L52.8712 73.9615ZM52.8714 73.9613L51.4572 72.5471C51.4353 72.569 51.4139 72.5914 51.393 72.6144L52.8714 73.9613ZM59.9425 66.8903L58.5282 65.476L58.5282 65.476L59.9425 66.8903ZM74.0844 52.7483L75.4986 54.1625L75.4986 54.1625L74.0844 52.7483ZM74.0844 32.9493L75.4986 31.5351L75.4986 31.5351L74.0844 32.9493ZM64.1849 28.8488L64.1849 26.8488L64.1849 28.8488ZM54.2854 32.9493L52.8712 31.5351L54.2854 32.9493ZM51.4572 35.7776L50.043 37.1918C50.418 37.5669 50.9267 37.7776 51.4572 37.7776C51.9876 37.7776 52.4963 37.5669 52.8714 37.1918L51.4572 35.7776ZM48.6287 32.9491L50.043 31.5349L50.043 31.5349L48.6287 32.9491ZM26.7292 42.8486C26.7292 39.666 27.9935 36.6138 30.244 34.3634L27.4155 31.5349C24.415 34.5355 22.7292 38.6052 22.7292 42.8486H26.7292ZM30.244 51.3339C27.9935 49.0835 26.7292 46.0312 26.7292 42.8486H22.7292C22.7292 47.0921 24.415 51.1618 27.4155 54.1623L30.244 51.3339ZM44.3247 65.4147L30.244 51.3339L27.4155 54.1623L41.4963 68.2431L44.3247 65.4147ZM41.4888 68.2356C41.5116 68.2586 41.5345 68.2816 41.5575 68.3046L44.3859 65.4762C44.368 65.4583 44.3501 65.4403 44.3322 65.4222L41.4888 68.2356ZM41.5575 68.3046L48.6286 75.3757L51.457 72.5473L44.3859 65.4762L41.5575 68.3046ZM48.6286 75.3757C50.1907 76.9378 52.7233 76.9378 54.2854 75.3757L51.457 72.5473L51.457 72.5473L48.6286 75.3757ZM54.3496 75.3085L54.3498 75.3083L51.393 72.6144L51.3928 72.6145L54.3496 75.3085ZM58.5282 65.476L51.4572 72.5471L54.2856 75.3755L61.3567 68.3045L58.5282 65.476ZM61.3567 68.3045L75.4986 54.1625L72.6702 51.3341L58.5282 65.476L61.3567 68.3045ZM75.4986 54.1625C78.4992 51.1619 80.1849 47.0923 80.1849 42.8488H76.1849C76.1849 46.0314 74.9206 49.0837 72.6702 51.3341L75.4986 54.1625ZM80.1849 42.8488C80.1849 38.6053 78.4992 34.5357 75.4986 31.5351L72.6702 34.3635C74.9207 36.614 76.1849 39.6662 76.1849 42.8488H80.1849ZM75.4986 31.5351C72.4981 28.5345 68.4284 26.8488 64.1849 26.8488L64.1849 30.8488C67.3675 30.8488 70.4198 32.1131 72.6702 34.3635L75.4986 31.5351ZM64.1849 26.8488C59.9415 26.8488 55.8718 28.5345 52.8712 31.5351L55.6997 34.3635C57.9501 32.1131 61.0023 30.8488 64.1849 30.8488L64.1849 26.8488ZM52.8712 31.5351L50.043 34.3634L52.8714 37.1918L55.6997 34.3635L52.8712 31.5351ZM47.2145 34.3634L50.043 37.1918L52.8714 34.3634L50.043 31.5349L47.2145 34.3634ZM38.7292 30.8486C41.9118 30.8486 44.9641 32.1129 47.2145 34.3634L50.043 31.5349C47.0424 28.5343 42.9727 26.8486 38.7292 26.8486V30.8486ZM30.244 34.3634C32.4944 32.1129 35.5467 30.8486 38.7292 30.8486V26.8486C34.4858 26.8486 30.4161 28.5343 27.4155 31.5349L30.244 34.3634Z" fill="#F4F4F4"/>
<path d="M28.8298 32.9487L27.4155 31.5344L28.8298 32.9487ZM28.8298 52.7476L30.244 51.3334L30.244 51.3334L28.8298 52.7476ZM42.9105 66.8284L44.3322 65.4217L44.3247 65.4142L42.9105 66.8284ZM42.9717 66.8899L44.3859 65.4757L44.3859 65.4757L42.9717 66.8899ZM50.0428 73.961L48.6286 75.3752L48.6286 75.3752L50.0428 73.961ZM52.8712 73.961L54.2854 75.3752C54.3074 75.3533 54.3288 75.3309 54.3496 75.308L52.8712 73.961ZM52.8714 73.9608L51.4572 72.5466C51.4353 72.5685 51.4139 72.591 51.393 72.6139L52.8714 73.9608ZM59.9425 66.8898L58.5282 65.4756L58.5282 65.4756L59.9425 66.8898ZM74.0844 52.7478L75.4986 54.162L75.4986 54.162L74.0844 52.7478ZM74.0844 32.9488L75.4986 31.5346L75.4986 31.5346L74.0844 32.9488ZM64.1849 28.8483L64.1849 26.8483L64.1849 28.8483ZM54.2854 32.9488L52.8712 31.5346L54.2854 32.9488ZM51.4572 35.7771L50.043 37.1913C50.418 37.5664 50.9267 37.7771 51.4572 37.7771C51.9876 37.7771 52.4963 37.5664 52.8714 37.1913L51.4572 35.7771ZM48.6287 32.9487L50.043 31.5344L50.043 31.5344L48.6287 32.9487ZM26.7292 42.8481C26.7292 39.6655 27.9935 36.6133 30.244 34.3629L27.4155 31.5344C24.415 34.535 22.7292 38.6047 22.7292 42.8481H26.7292ZM30.244 51.3334C27.9935 49.083 26.7292 46.0307 26.7292 42.8481H22.7292C22.7292 47.0916 24.415 51.1613 27.4155 54.1619L30.244 51.3334ZM44.3247 65.4142L30.244 51.3334L27.4155 54.1619L41.4963 68.2426L44.3247 65.4142ZM41.4888 68.2351C41.5116 68.2581 41.5345 68.2811 41.5575 68.3042L44.3859 65.4757C44.368 65.4578 44.3501 65.4398 44.3322 65.4217L41.4888 68.2351ZM41.5575 68.3042L48.6286 75.3752L51.457 72.5468L44.3859 65.4757L41.5575 68.3042ZM48.6286 75.3752C50.1907 76.9373 52.7233 76.9373 54.2854 75.3752L51.457 72.5468L51.457 72.5468L48.6286 75.3752ZM54.3496 75.308L54.3498 75.3078L51.393 72.6139L51.3928 72.614L54.3496 75.308ZM58.5282 65.4756L51.4572 72.5466L54.2856 75.3751L61.3567 68.304L58.5282 65.4756ZM61.3567 68.304L75.4986 54.162L72.6702 51.3336L58.5282 65.4756L61.3567 68.304ZM75.4986 54.162C78.4992 51.1614 80.1849 47.0918 80.1849 42.8483H76.1849C76.1849 46.0309 74.9206 49.0832 72.6702 51.3336L75.4986 54.162ZM80.1849 42.8483C80.1849 38.6049 78.4992 34.5352 75.4986 31.5346L72.6702 34.363C74.9207 36.6135 76.1849 39.6657 76.1849 42.8483H80.1849ZM75.4986 31.5346C72.4981 28.534 68.4284 26.8483 64.1849 26.8483L64.1849 30.8483C67.3675 30.8483 70.4198 32.1126 72.6702 34.363L75.4986 31.5346ZM64.1849 26.8483C59.9415 26.8483 55.8718 28.534 52.8712 31.5346L55.6997 34.363C57.9501 32.1126 61.0023 30.8483 64.1849 30.8483L64.1849 26.8483ZM52.8712 31.5346L50.043 34.3629L52.8714 37.1913L55.6997 34.363L52.8712 31.5346ZM47.2145 34.3629L50.043 37.1913L52.8714 34.3629L50.043 31.5344L47.2145 34.3629ZM38.7292 30.8481C41.9118 30.8481 44.9641 32.1124 47.2145 34.3629L50.043 31.5344C47.0424 28.5339 42.9727 26.8481 38.7292 26.8481V30.8481ZM30.244 34.3629C32.4944 32.1124 35.5467 30.8481 38.7292 30.8481V26.8481C34.4858 26.8481 30.4161 28.5339 27.4155 31.5344L30.244 34.3629Z" fill="#F4F4F4"/>
<path fill-rule="evenodd" clip-rule="evenodd" d="M58.8721 27.4797L54.502 34.6789C54.4108 34.8291 54.4825 35.0251 54.649 35.0811L55.8043 35.4695L57.2218 35.946L60.3592 37.0008C61.0449 37.2313 61.2665 38.0911 60.7777 38.6244L45.5973 55.1838C45.3358 55.4691 44.8831 55.143 45.071 54.8046L51.9006 42.5017C52.2039 41.9552 51.9373 41.2676 51.345 41.0684L50.7457 40.867L49.4177 40.4205L44.7952 38.8665C44.2252 38.6748 43.952 38.0271 44.2127 37.4851L48.1819 29.2329C48.3626 29.4162 48.5385 29.6049 48.7097 29.7988L51.3558 32.7985L54.3553 30.1524C55.6919 28.9733 57.2271 28.0723 58.8721 27.4797Z" fill="#141414"/>
</svg>
