<svg width="104" height="104" viewBox="0 0 104 104" fill="none" xmlns="http://www.w3.org/2000/svg">
<circle cx="52" cy="52" r="50" stroke="#F4F4F4" stroke-width="4" stroke-linecap="round" stroke-linejoin="round"/>
<path d="M28.8298 32.9492L27.4155 31.535L28.8298 32.9492ZM28.8298 52.7482L30.244 51.334H30.244L28.8298 52.7482ZM42.9105 66.8289L44.3322 65.4223L44.3247 65.4147L42.9105 66.8289ZM42.9717 66.8905L44.3859 65.4763L42.9717 66.8905ZM50.0428 73.9616L48.6286 75.3758H48.6286L50.0428 73.9616ZM52.8712 73.9616L54.2854 75.3758C54.3074 75.3539 54.3288 75.3314 54.3496 75.3085L52.8712 73.9616ZM52.8714 73.9614L51.4572 72.5472C51.4353 72.5691 51.4139 72.5915 51.393 72.6144L52.8714 73.9614ZM59.9425 66.8903L58.5282 65.4761H58.5282L59.9425 66.8903ZM74.0844 52.7484L75.4986 54.1626L75.4986 54.1626L74.0844 52.7484ZM74.0844 32.9494L75.4986 31.5352V31.5352L74.0844 32.9494ZM64.1849 28.8489V26.8489V28.8489ZM54.2854 32.9494L52.8712 31.5352L54.2854 32.9494ZM51.4572 35.7776L50.043 37.1918C50.418 37.5669 50.9267 37.7776 51.4572 37.7776C51.9876 37.7776 52.4963 37.5669 52.8714 37.1918L51.4572 35.7776ZM48.6287 32.9492L50.043 31.535V31.535L48.6287 32.9492ZM26.7292 42.8487C26.7292 39.6661 27.9935 36.6139 30.244 34.3634L27.4155 31.535C24.415 34.5356 22.7292 38.6052 22.7292 42.8487H26.7292ZM30.244 51.334C27.9935 49.0835 26.7292 46.0313 26.7292 42.8487H22.7292C22.7292 47.0922 24.415 51.1618 27.4155 54.1624L30.244 51.334ZM44.3247 65.4147L30.244 51.334L27.4155 54.1624L41.4963 68.2432L44.3247 65.4147ZM41.4888 68.2356C41.5116 68.2587 41.5345 68.2817 41.5575 68.3047L44.3859 65.4763C44.368 65.4584 44.3501 65.4404 44.3322 65.4223L41.4888 68.2356ZM41.5575 68.3047L48.6286 75.3758L51.457 72.5473L44.3859 65.4763L41.5575 68.3047ZM48.6286 75.3758C50.1907 76.9379 52.7233 76.9379 54.2854 75.3758L51.457 72.5474L51.457 72.5473L48.6286 75.3758ZM54.3496 75.3085L54.3498 75.3084L51.393 72.6144L51.3928 72.6146L54.3496 75.3085ZM58.5282 65.4761L51.4572 72.5472L54.2856 75.3756L61.3567 68.3045L58.5282 65.4761ZM61.3567 68.3045L75.4986 54.1626L72.6702 51.3342L58.5282 65.4761L61.3567 68.3045ZM75.4986 54.1626C78.4992 51.162 80.1849 47.0923 80.1849 42.8489H76.1849C76.1849 46.0315 74.9207 49.0837 72.6702 51.3342L75.4986 54.1626ZM80.1849 42.8489C80.1849 38.6054 78.4992 34.5357 75.4986 31.5352L72.6702 34.3636C74.9207 36.614 76.1849 39.6663 76.1849 42.8489H80.1849ZM75.4986 31.5352C72.4981 28.5346 68.4284 26.8489 64.1849 26.8489V30.8489C67.3675 30.8489 70.4198 32.1131 72.6702 34.3636L75.4986 31.5352ZM64.1849 26.8489C59.9415 26.8489 55.8718 28.5346 52.8712 31.5352L55.6996 34.3636C57.9501 32.1132 61.0023 30.8489 64.1849 30.8489V26.8489ZM52.8712 31.5352L50.043 34.3634L52.8714 37.1918L55.6996 34.3636L52.8712 31.5352ZM47.2145 34.3634L50.043 37.1918L52.8714 34.3634L50.043 31.535L47.2145 34.3634ZM38.7292 30.8487C41.9118 30.8487 44.9641 32.113 47.2145 34.3634L50.043 31.535C47.0424 28.5344 42.9727 26.8487 38.7292 26.8487V30.8487ZM30.244 34.3634C32.4944 32.113 35.5466 30.8487 38.7292 30.8487V26.8487C34.4858 26.8487 30.4161 28.5344 27.4155 31.535L30.244 34.3634Z" fill="#F4F4F4"/>
<path d="M28.8298 32.9487L30.244 34.3629L28.8298 32.9487ZM28.8298 52.7477L30.244 51.3335H30.244L28.8298 52.7477ZM42.9102 66.8281L44.3319 65.4214L44.3244 65.4139L42.9102 66.8281ZM42.9717 66.89L41.5575 68.3042L42.9717 66.89ZM50.0428 73.9611L48.6286 75.3753H48.6286L50.0428 73.9611ZM52.8712 73.9611L54.2854 75.3753C54.3074 75.3534 54.3288 75.331 54.3496 75.3081L52.8712 73.9611ZM52.8714 73.9609L51.4572 72.5467C51.4353 72.5686 51.4139 72.591 51.393 72.6139L52.8714 73.9609ZM59.9425 66.8898L58.5282 65.4756H58.5282L59.9425 66.8898ZM74.0844 52.7479L75.4986 54.1621L75.4986 54.1621L74.0844 52.7479ZM78.1849 42.8484L80.1849 42.8484V42.8484H78.1849ZM74.0844 32.9489L75.4986 31.5347V31.5347L74.0844 32.9489ZM64.1849 28.8484V26.8484V28.8484ZM54.2854 32.9489L55.6996 34.3631L54.2854 32.9489ZM51.4572 35.7771L50.043 37.1914C50.418 37.5664 50.9267 37.7771 51.4572 37.7771C51.9876 37.7771 52.4963 37.5664 52.8714 37.1914L51.4572 35.7771ZM48.6287 32.9487L50.043 31.5345V31.5345L48.6287 32.9487ZM26.7292 42.8482C26.7292 39.6656 27.9935 36.6134 30.244 34.3629L27.4155 31.5345C24.415 34.5351 22.7292 38.6047 22.7292 42.8482H26.7292ZM30.244 51.3335C27.9935 49.0831 26.7292 46.0308 26.7292 42.8482H22.7292C22.7292 47.0917 24.415 51.1613 27.4155 54.1619L30.244 51.3335ZM44.3244 65.4139L30.244 51.3335L27.4155 54.1619L41.4959 68.2423L44.3244 65.4139ZM41.4884 68.2348C41.5114 68.258 41.5344 68.2811 41.5575 68.3042L44.3859 65.4758C44.3678 65.4577 44.3498 65.4396 44.3319 65.4215L41.4884 68.2348ZM41.5575 68.3042L48.6286 75.3753L51.457 72.5469L44.3859 65.4758L41.5575 68.3042ZM48.6286 75.3753C50.1907 76.9374 52.7233 76.9374 54.2854 75.3753L51.457 72.5469H51.457L48.6286 75.3753ZM54.3496 75.3081L54.3498 75.3079L51.393 72.6139L51.3928 72.6141L54.3496 75.3081ZM58.5282 65.4756L51.4572 72.5467L54.2856 75.3751L61.3567 68.3041L58.5282 65.4756ZM61.3567 68.3041L75.4986 54.1621L72.6702 51.3337L58.5282 65.4756L61.3567 68.3041ZM75.4986 54.1621C78.4992 51.1615 80.1849 47.0918 80.1849 42.8484L76.1849 42.8484C76.1849 46.031 74.9206 49.0832 72.6702 51.3337L75.4986 54.1621ZM80.1849 42.8484C80.1849 38.6049 78.4992 34.5353 75.4986 31.5347L72.6702 34.3631C74.9207 36.6135 76.1849 39.6658 76.1849 42.8484H80.1849ZM75.4986 31.5347C72.4981 28.5341 68.4284 26.8484 64.1849 26.8484V30.8484C67.3675 30.8484 70.4198 32.1127 72.6702 34.3631L75.4986 31.5347ZM64.1849 26.8484C59.9415 26.8484 55.8718 28.5341 52.8712 31.5347L55.6996 34.3631C57.9501 32.1127 61.0023 30.8484 64.1849 30.8484V26.8484ZM52.8712 31.5347L50.043 34.3629L52.8714 37.1914L55.6996 34.3631L52.8712 31.5347ZM47.2145 34.3629L50.043 37.1914L52.8714 34.3629L50.043 31.5345L47.2145 34.3629ZM38.7292 30.8482C41.9118 30.8482 44.9641 32.1125 47.2145 34.3629L50.043 31.5345C47.0424 28.5339 42.9727 26.8482 38.7292 26.8482V30.8482ZM30.244 34.3629C32.4944 32.1125 35.5466 30.8482 38.7292 30.8482V26.8482C34.4858 26.8482 30.4161 28.5339 27.4155 31.5345L30.244 34.3629Z" fill="#F4F4F4"/>
</svg>
