<svg width="25" height="24" viewBox="0 0 25 24" fill="none" xmlns="http://www.w3.org/2000/svg">
<path d="M14.6228 9.19725L14.4962 9.8H15.1121H20.8485C21.5771 9.8 22.1667 10.3909 22.1667 11.1V12.9C22.1667 13.0638 22.1358 13.2155 22.0771 13.3663L19.335 19.7034L19.335 19.7034L19.3331 19.708C19.1376 20.1725 18.6725 20.5 18.1212 20.5H9.93938C9.21078 20.5 8.6212 19.9091 8.6212 19.2V10.2C8.6212 9.84278 8.76453 9.5222 9.00444 9.29111L9.00448 9.29115L9.00961 9.28606L14.6413 3.7022L15.2512 4.30033C15.2515 4.30056 15.2517 4.3008 15.252 4.30103C15.4022 4.45008 15.4971 4.65728 15.5028 4.87818L15.4806 5.11182L14.6228 9.19725ZM5.80302 10.7V20.5H3.16666V10.7H5.80302Z" stroke="white"/>
</svg>
