<svg width="104" height="104" viewBox="0 0 104 104" fill="none" xmlns="http://www.w3.org/2000/svg">
<circle cx="52" cy="52" r="50" stroke="#F4F4F4" stroke-width="4" stroke-linecap="round" stroke-linejoin="round"/>
<path fill-rule="evenodd" clip-rule="evenodd" d="M29.1005 33.1001C26.475 35.7256 25 39.2865 25 42.9996C25 46.7126 26.475 50.2736 29.1005 52.8991L43.1809 66.9795C43.2014 67.0002 43.2219 67.0208 43.2425 67.0414L50.3136 74.1124C51.0946 74.8935 52.3609 74.8935 53.142 74.1124L53.1421 74.1123L60.2132 67.0412L74.3552 52.8992C76.9807 50.2737 78.4557 46.7128 78.4557 42.9997C78.4557 39.2867 76.9807 35.7258 74.3552 33.1002C71.7297 30.4747 68.1687 28.9997 64.4557 28.9997C60.7427 28.9997 57.1817 30.4747 54.5562 33.1003L51.7279 35.9285L48.8995 33.1001C46.274 30.4746 42.713 28.9996 39 28.9996C35.287 28.9996 31.726 30.4746 29.1005 33.1001Z" fill="#141414"/>
<path d="M29.1005 33.1001L30.5147 34.5143L30.5147 34.5143L29.1005 33.1001ZM29.1005 52.8991L30.5147 51.4849L30.5147 51.4849L29.1005 52.8991ZM43.1809 66.9795L44.6027 65.5728L44.5951 65.5653L43.1809 66.9795ZM43.2425 67.0414L41.8283 68.4556L41.8283 68.4556L43.2425 67.0414ZM50.3136 74.1124L48.8993 75.5267L48.8993 75.5267L50.3136 74.1124ZM53.142 74.1124L54.5562 75.5267C54.5781 75.5047 54.5995 75.4823 54.6204 75.4594L53.142 74.1124ZM53.1421 74.1123L51.7279 72.6981C51.706 72.72 51.6846 72.7424 51.6637 72.7653L53.1421 74.1123ZM60.2132 67.0412L58.799 65.627L58.799 65.627L60.2132 67.0412ZM74.3552 52.8992L75.7694 54.3135L75.7694 54.3135L74.3552 52.8992ZM78.4557 42.9997L80.4557 42.9997V42.9997H78.4557ZM74.3552 33.1002L75.7694 31.686L75.7694 31.686L74.3552 33.1002ZM64.4557 28.9997L64.4557 26.9997L64.4557 26.9997L64.4557 28.9997ZM54.5562 33.1003L55.9704 34.5145L55.9704 34.5145L54.5562 33.1003ZM51.7279 35.9285L50.3137 37.3427C50.6888 37.7178 51.1975 37.9285 51.7279 37.9285C52.2584 37.9285 52.7671 37.7178 53.1421 37.3427L51.7279 35.9285ZM48.8995 33.1001L50.3137 31.6859L50.3137 31.6859L48.8995 33.1001ZM27 42.9996C27 39.817 28.2643 36.7647 30.5147 34.5143L27.6863 31.6859C24.6857 34.6864 23 38.7561 23 42.9996H27ZM30.5147 51.4849C28.2643 49.2344 27 46.1822 27 42.9996H23C23 47.243 24.6857 51.3127 27.6863 54.3133L30.5147 51.4849ZM44.5951 65.5653L30.5147 51.4849L27.6863 54.3133L41.7667 68.3937L44.5951 65.5653ZM41.7592 68.3861C41.7822 68.4094 41.8052 68.4325 41.8283 68.4556L44.6567 65.6272C44.6386 65.6091 44.6206 65.5909 44.6026 65.5728L41.7592 68.3861ZM41.8283 68.4556L48.8993 75.5267L51.7278 72.6982L44.6567 65.6272L41.8283 68.4556ZM48.8993 75.5267C50.4614 77.0888 52.9941 77.0888 54.5562 75.5267L51.7278 72.6982L51.7278 72.6982L48.8993 75.5267ZM54.6204 75.4594L54.6205 75.4593L51.6637 72.7653L51.6636 72.7655L54.6204 75.4594ZM58.799 65.627L51.7279 72.6981L54.5563 75.5265L61.6274 68.4554L58.799 65.627ZM61.6274 68.4554L75.7694 54.3135L72.941 51.485L58.799 65.627L61.6274 68.4554ZM75.7694 54.3135C78.77 51.3129 80.4557 47.2432 80.4557 42.9997L76.4557 42.9997C76.4557 46.1823 75.1914 49.2346 72.941 51.485L75.7694 54.3135ZM80.4557 42.9997C80.4557 38.7563 78.77 34.6866 75.7694 31.686L72.941 34.5145C75.1914 36.7649 76.4557 39.8171 76.4557 42.9997H80.4557ZM75.7694 31.686C72.7688 28.6855 68.6991 26.9997 64.4557 26.9997L64.4557 30.9997C67.6383 30.9997 70.6905 32.264 72.941 34.5145L75.7694 31.686ZM64.4557 26.9997C60.2122 26.9997 56.1426 28.6855 53.142 31.686L55.9704 34.5145C58.2208 32.264 61.2731 30.9997 64.4557 30.9997L64.4557 26.9997ZM53.142 31.686L50.3137 34.5143L53.1421 37.3427L55.9704 34.5145L53.142 31.686ZM47.4853 34.5143L50.3137 37.3427L53.1421 34.5143L50.3137 31.6859L47.4853 34.5143ZM39 30.9996C42.1826 30.9996 45.2348 32.2639 47.4853 34.5143L50.3137 31.6859C47.3131 28.6853 43.2435 26.9996 39 26.9996V30.9996ZM30.5147 34.5143C32.7652 32.2639 35.8174 30.9996 39 30.9996V26.9996C34.7565 26.9996 30.6869 28.6853 27.6863 31.6859L30.5147 34.5143Z" fill="#F4F4F4"/>
<path d="M53.1418 34.5145C52.3607 33.7334 51.0944 33.7334 50.3133 34.5145C49.5323 35.2955 49.5323 36.5619 50.3133 37.3429L53.1418 34.5145ZM60.2128 47.2424C60.9938 48.0234 62.2602 48.0234 63.0412 47.2424C63.8223 46.4613 63.8223 45.195 63.0412 44.414L60.2128 47.2424ZM63.0412 44.414L53.1418 34.5145L50.3133 37.3429L60.2128 47.2424L63.0412 44.414Z" fill="#F4F4F4"/>
</svg>
