<svg width="127" height="19" viewBox="0 0 127 19" fill="none" xmlns="http://www.w3.org/2000/svg">
<path d="M0.617188 0.649987V18.5H4.21719V10.75H10.2172V7.79999H4.21719V3.59999H10.5922V0.649987H0.617188ZM13.4395 18.5H23.4145V15.55H17.0395V0.649987H13.4395V18.5ZM26.4367 18.5H30.0367V0.649987H26.4367V18.5ZM41.582 6.67499H45.182C45.182 6.02499 45.132 5.33329 45.032 4.59999C44.9487 3.84999 44.7237 3.15829 44.357 2.52499C43.9904 1.87499 43.432 1.34169 42.682 0.924988C41.9487 0.508288 40.9404 0.299988 39.657 0.299988C38.307 0.299988 37.232 0.533288 36.432 0.999988C35.632 1.44999 35.0154 2.08329 34.582 2.89999C34.1654 3.71669 33.8904 4.69999 33.757 5.84999C33.6404 6.98329 33.582 8.22499 33.582 9.57499C33.582 10.9417 33.6404 12.1917 33.757 13.325C33.8904 14.4583 34.1654 15.4333 34.582 16.25C35.0154 17.0667 35.632 17.6917 36.432 18.125C37.232 18.5583 38.307 18.775 39.657 18.775C40.8404 18.775 41.7987 18.5917 42.532 18.225C43.282 17.8583 43.857 17.35 44.257 16.7C44.6737 16.05 44.957 15.2917 45.107 14.425C45.257 13.5583 45.332 12.6417 45.332 11.675H41.732C41.732 12.6417 41.6737 13.425 41.557 14.025C41.4404 14.6083 41.282 15.0667 41.082 15.4C40.882 15.7167 40.6404 15.9333 40.357 16.05C40.0904 16.15 39.7987 16.2 39.482 16.2C39.0987 16.2 38.757 16.125 38.457 15.975C38.1737 15.8083 37.932 15.5 37.732 15.05C37.5487 14.5833 37.407 13.9333 37.307 13.1C37.2237 12.2667 37.182 11.175 37.182 9.82499C37.182 8.55829 37.2154 7.49169 37.282 6.62499C37.3487 5.74169 37.4654 5.03329 37.632 4.49999C37.7987 3.94999 38.0237 3.55829 38.307 3.32499C38.607 3.07499 38.982 2.94999 39.432 2.94999C40.2487 2.94999 40.807 3.24999 41.107 3.84999C41.4237 4.43329 41.582 5.37499 41.582 6.67499ZM52.2348 0.649987H48.6348V18.5H52.2348V13.2L53.5598 11.175L57.2348 18.5H61.2848L55.8848 8.29999L60.7348 0.649987H56.8348L52.2848 7.79999H52.2348V0.649987ZM66.2125 12.925H62.6125V13.65C62.6125 15.3 63.0458 16.5667 63.9125 17.45C64.7958 18.3333 66.2542 18.775 68.2875 18.775C70.2375 18.775 71.7542 18.35 72.8375 17.5C73.9375 16.6333 74.4875 15.2583 74.4875 13.375C74.4875 12.825 74.4375 12.325 74.3375 11.875C74.2375 11.425 74.0542 11.0167 73.7875 10.65C73.5375 10.2667 73.1958 9.91669 72.7625 9.59999C72.3292 9.26669 71.7708 8.94999 71.0875 8.64999L68.3125 7.44999C67.5458 7.13329 67.0458 6.79169 66.8125 6.42499C66.5792 6.04169 66.4625 5.57499 66.4625 5.02499C66.4625 4.75829 66.4875 4.49999 66.5375 4.24999C66.6042 3.99999 66.7125 3.78329 66.8625 3.59999C67.0292 3.39999 67.2458 3.24169 67.5125 3.12499C67.7792 3.00829 68.1125 2.94999 68.5125 2.94999C69.2125 2.94999 69.7125 3.18329 70.0125 3.64999C70.3125 4.09999 70.4625 4.74999 70.4625 5.59999H73.9125V5.09999C73.9125 4.24999 73.7708 3.52499 73.4875 2.92499C73.2208 2.30829 72.8375 1.80829 72.3375 1.42499C71.8542 1.02499 71.2708 0.741687 70.5875 0.574987C69.9208 0.391687 69.1875 0.299988 68.3875 0.299988C66.6708 0.299988 65.3208 0.733288 64.3375 1.59999C63.3542 2.46669 62.8625 3.78329 62.8625 5.54999C62.8625 6.28329 62.9542 6.93329 63.1375 7.49999C63.3208 8.04999 63.6042 8.54169 63.9875 8.97499C64.3875 9.39169 64.8792 9.75829 65.4625 10.075C66.0458 10.3917 66.7375 10.6833 67.5375 10.95C68.1375 11.15 68.6375 11.35 69.0375 11.55C69.4542 11.7333 69.7875 11.9417 70.0375 12.175C70.2875 12.4083 70.4625 12.675 70.5625 12.975C70.6792 13.2583 70.7375 13.6 70.7375 14C70.7375 14.75 70.5125 15.3083 70.0625 15.675C69.6292 16.025 69.1375 16.2 68.5875 16.2C68.1208 16.2 67.7292 16.1333 67.4125 16C67.1125 15.8667 66.8708 15.6833 66.6875 15.45C66.5042 15.2167 66.3792 14.9333 66.3125 14.6C66.2458 14.25 66.2125 13.8667 66.2125 13.45V12.925ZM88.382 15.85V10.475H89.932C90.332 10.475 90.699 10.5167 91.032 10.6C91.366 10.6833 91.649 10.8333 91.882 11.05C92.132 11.25 92.324 11.525 92.457 11.875C92.607 12.2083 92.682 12.6333 92.682 13.15C92.682 14.1833 92.416 14.8917 91.882 15.275C91.349 15.6583 90.649 15.85 89.782 15.85H88.382ZM88.382 7.97499V3.29999H89.682C90.582 3.29999 91.241 3.47499 91.657 3.82499C92.074 4.17499 92.282 4.77499 92.282 5.62499C92.282 6.47499 92.049 7.08329 91.582 7.44999C91.132 7.79999 90.407 7.97499 89.407 7.97499H88.382ZM84.782 0.649987V18.5H90.857C91.907 18.5 92.782 18.3583 93.482 18.075C94.199 17.7917 94.774 17.4167 95.207 16.95C95.657 16.4667 95.974 15.9083 96.157 15.275C96.341 14.6417 96.432 13.975 96.432 13.275C96.432 12.075 96.141 11.1167 95.557 10.4C94.974 9.68329 94.182 9.25829 93.182 9.12499V9.07499C94.082 8.82499 94.757 8.35829 95.207 7.67499C95.657 6.97499 95.882 6.14169 95.882 5.17499C95.882 4.32499 95.757 3.60829 95.507 3.02499C95.257 2.44169 94.907 1.97499 94.457 1.62499C94.007 1.27499 93.466 1.02499 92.832 0.874988C92.216 0.724988 91.541 0.649987 90.807 0.649987H84.782ZM103.149 9.57499C103.149 8.37499 103.174 7.35829 103.224 6.52499C103.29 5.69169 103.407 5.00829 103.574 4.47499C103.757 3.94169 104.007 3.55829 104.324 3.32499C104.657 3.07499 105.09 2.94999 105.624 2.94999C106.157 2.94999 106.582 3.07499 106.899 3.32499C107.232 3.55829 107.482 3.94169 107.649 4.47499C107.832 5.00829 107.949 5.69169 107.999 6.52499C108.065 7.35829 108.099 8.37499 108.099 9.57499C108.099 10.775 108.065 11.8 107.999 12.65C107.949 13.4833 107.832 14.1667 107.649 14.7C107.482 15.2167 107.232 15.6 106.899 15.85C106.582 16.0833 106.157 16.2 105.624 16.2C105.09 16.2 104.657 16.0833 104.324 15.85C104.007 15.6 103.757 15.2167 103.574 14.7C103.407 14.1667 103.29 13.4833 103.224 12.65C103.174 11.8 103.149 10.775 103.149 9.57499ZM99.549 9.57499C99.549 10.9417 99.607 12.1917 99.724 13.325C99.857 14.4583 100.132 15.4333 100.549 16.25C100.982 17.0667 101.599 17.6917 102.399 18.125C103.199 18.5583 104.274 18.775 105.624 18.775C106.974 18.775 108.049 18.5583 108.849 18.125C109.649 17.6917 110.257 17.0667 110.674 16.25C111.107 15.4333 111.382 14.4583 111.499 13.325C111.632 12.1917 111.699 10.9417 111.699 9.57499C111.699 8.22499 111.632 6.98329 111.499 5.84999C111.382 4.69999 111.107 3.71669 110.674 2.89999C110.257 2.08329 109.649 1.44999 108.849 0.999988C108.049 0.533288 106.974 0.299988 105.624 0.299988C104.274 0.299988 103.199 0.533288 102.399 0.999988C101.599 1.44999 100.982 2.08329 100.549 2.89999C100.132 3.71669 99.857 4.69999 99.724 5.84999C99.607 6.98329 99.549 8.22499 99.549 9.57499ZM113.705 0.649987L117.805 9.47499L113.355 18.5H117.305L119.855 12.45L122.43 18.5H126.48L122.03 9.47499L126.18 0.649987H122.255L119.98 6.42499L117.68 0.649987H113.705Z" fill="white"/>
</svg>
