<svg width="25" height="26" viewBox="0 0 25 26" fill="none" xmlns="http://www.w3.org/2000/svg">
<path d="M21.4869 12.8091L21.3809 12.9152L21.487 13.0212L24.3329 15.8665L24.333 15.8666C24.4608 15.9942 24.4608 16.2018 24.333 16.3294L24.3329 16.3295C24.269 16.3934 24.1854 16.4253 24.1012 16.4253C24.017 16.4253 23.9335 16.3934 23.8696 16.3295L21.0243 13.4842L20.9182 13.3781L20.8121 13.4842L17.9668 16.3295C17.9029 16.3934 17.8194 16.4253 17.7352 16.4253C17.651 16.4253 17.5674 16.3934 17.5035 16.3295L17.5034 16.3294C17.3756 16.2018 17.3756 15.9942 17.5034 15.8666L17.5035 15.8665L20.3488 13.0212L20.4549 12.9151L20.3488 12.8091L17.5035 9.96377L17.5034 9.96368C17.3756 9.83607 17.3756 9.62848 17.5034 9.50087L17.5035 9.50078C17.6315 9.37284 17.8386 9.37284 17.9665 9.50078L20.8118 12.3461L20.9179 12.4522L21.024 12.3461L23.8693 9.50078C23.9972 9.37284 24.2043 9.37284 24.3322 9.50078L24.3323 9.50087C24.4602 9.62848 24.4602 9.83607 24.3323 9.96368L24.3322 9.96377L21.4869 12.8091Z" fill="white" stroke="white" stroke-width="0.3"/>
<path d="M14.2941 0.711068C14.1324 0.630219 13.9389 0.647407 13.7941 0.755948L5.38518 7.05611H0.61637C0.352497 7.05611 0.138916 7.26969 0.138916 7.53356V18.3453C0.138916 18.6092 0.352497 18.8228 0.61637 18.8228H5.38613L13.7954 25.0755C13.8794 25.1379 13.9797 25.1697 14.0802 25.1697C14.1534 25.1697 14.2267 25.1529 14.2948 25.1188C14.4558 25.0376 14.5577 24.8728 14.5577 24.6923V1.13791C14.558 0.957434 14.4558 0.791917 14.2941 0.711068ZM13.6031 23.7425L5.82921 17.9621C5.74677 17.901 5.64682 17.8679 5.54433 17.8679H1.09382V8.01101H5.54433C5.64746 8.01101 5.74804 7.97759 5.83048 7.91584L13.6028 2.0925L13.6031 23.7425Z" fill="white"/>
</svg>
