<svg width="36" height="36" viewBox="0 0 36 36" fill="none" xmlns="http://www.w3.org/2000/svg">
<path d="M26.4869 17.8091L26.3809 17.9152L26.487 18.0212L29.3329 20.8665L29.333 20.8666C29.4608 20.9942 29.4608 21.2018 29.333 21.3294L29.3329 21.3295C29.269 21.3934 29.1854 21.4253 29.1012 21.4253C29.017 21.4253 28.9335 21.3934 28.8696 21.3295L26.0243 18.4842L25.9182 18.3781L25.8121 18.4842L22.9668 21.3295C22.9029 21.3934 22.8194 21.4253 22.7352 21.4253C22.651 21.4253 22.5674 21.3934 22.5035 21.3295L22.5034 21.3294C22.3756 21.2018 22.3756 20.9942 22.5034 20.8666L22.5035 20.8665L25.3488 18.0212L25.4549 17.9151L25.3488 17.8091L22.5035 14.9638L22.5034 14.9637C22.3756 14.8361 22.3756 14.6285 22.5034 14.5009L22.5035 14.5008C22.6315 14.3728 22.8386 14.3728 22.9665 14.5008L25.8118 17.3461L25.9179 17.4522L26.024 17.3461L28.8693 14.5008C28.9972 14.3728 29.2043 14.3728 29.3322 14.5008L29.3323 14.5009C29.4602 14.6285 29.4602 14.8361 29.3323 14.9637L29.3322 14.9638L26.4869 17.8091Z" stroke="white" stroke-width="0.3"/>
<path d="M18.884 5.87598L18.884 5.87599L10.4751 12.1762L10.4351 12.2061H10.3852H5.61637C5.43534 12.2061 5.28892 12.3525 5.28892 12.5336V23.3453C5.28892 23.5264 5.43534 23.6728 5.61637 23.6728H10.3861H10.4358L10.4756 23.7024L18.8848 29.9551L18.884 5.87598ZM18.884 5.87598C18.9833 5.80157 19.1161 5.78973 19.2271 5.84523C19.3379 5.90067 19.4079 6.01418 19.4077 6.13765V6.13791M18.884 5.87598L19.4077 6.13791M19.4077 6.13791V29.6923C19.4077 29.8158 19.3381 29.9288 19.2277 29.9846C19.1805 30.0083 19.1303 30.0197 19.0802 30.0197C19.0113 30.0197 18.9425 29.9979 18.8849 29.9552L19.4077 6.13791ZM18.5136 28.8628L18.7531 29.0409L18.7531 28.7425L18.7528 7.0925L18.7528 6.79269L18.5128 6.97246L10.7406 12.7958C10.7405 12.7958 10.7405 12.7958 10.7405 12.7958C10.6841 12.838 10.6151 12.861 10.5443 12.861H6.09382H5.94382V13.011V22.8679V23.0179H6.09382H10.5443C10.6145 23.0179 10.6832 23.0406 10.7398 23.0826C10.7399 23.0826 10.7399 23.0826 10.7399 23.0826L18.5136 28.8628Z" stroke="white" stroke-width="0.3"/>
<circle opacity="0.6" cx="18" cy="18" r="17.75" stroke="white" stroke-width="0.5"/>
</svg>
