<svg width="104" height="104" viewBox="0 0 104 104" fill="none" xmlns="http://www.w3.org/2000/svg">
<circle cx="52" cy="52" r="50" stroke="#F4F4F4" stroke-width="4" stroke-linecap="round" stroke-linejoin="round"/>
<path d="M53.3588 29.5149L55.3588 29.5149L55.3588 29.5149L53.3588 29.5149ZM49.9617 75.9515L48.5646 77.3827L49.9617 75.9515ZM49.9617 27.0485L48.5646 25.6173L49.9617 27.0485ZM53.3588 28.4796L55.3588 28.4796L53.3588 28.4796ZM36.1639 40.518L34.7669 39.0868L36.1639 40.518ZM34.7664 59.9127H22.1736V63.9127H34.7664V59.9127ZM22.1736 59.9127L22.1736 43.0868H18.1736L18.1736 59.9127H22.1736ZM22.1736 43.0868L34.7669 43.0868V39.0868H22.1736V43.0868ZM37.561 41.9491L51.3588 28.4796L48.5646 25.6173L34.7669 39.0868L37.561 41.9491ZM51.3588 28.4796L51.3588 29.5149L55.3588 29.5149L55.3588 28.4796L51.3588 28.4796ZM51.3588 29.5149L51.3588 72.3236H55.3588L55.3588 29.5149H51.3588ZM51.3588 72.3236V74.5204H55.3588V72.3236H51.3588ZM51.3588 74.5204L37.5606 61.0504L34.7664 63.9127L48.5646 77.3827L51.3588 74.5204ZM51.3588 74.5204L51.3588 74.5204L48.5646 77.3827C51.098 79.8558 55.3588 78.0608 55.3588 74.5204H51.3588ZM51.3588 28.4796L51.3588 28.4796L55.3588 28.4796C55.3588 24.9391 51.098 23.1442 48.5646 25.6173L51.3588 28.4796ZM34.7669 43.0868C35.811 43.0868 36.8138 42.6785 37.561 41.9491L34.7669 39.0868L34.7669 39.0868V43.0868ZM22.1736 43.0868L22.1736 43.0868V39.0868C19.9644 39.0868 18.1736 40.8777 18.1736 43.0868H22.1736ZM22.1736 59.9127L22.1736 59.9127H18.1736C18.1736 62.1218 19.9644 63.9127 22.1736 63.9127V59.9127ZM34.7664 63.9127L34.7664 63.9127L37.5606 61.0504C36.8134 60.321 35.8106 59.9127 34.7664 59.9127V63.9127Z" fill="#F4F4F4"/>
<path d="M65.7908 58.6068L72.6476 51.9131L74.0189 50.5743L80.8757 43.8806" stroke="#F4F4F4" stroke-width="4" stroke-linecap="round" stroke-linejoin="round"/>
<path d="M80.8762 58.6068L74.0194 51.9131L72.6481 50.5743L65.7913 43.8806" stroke="#F4F4F4" stroke-width="4" stroke-linecap="round" stroke-linejoin="round"/>
</svg>
