<svg width="134" height="27" viewBox="0 0 134 27" fill="none" xmlns="http://www.w3.org/2000/svg">
<g filter="url(#filter0_d)">
<path d="M4 4.35V22.2H7.6V14.45H13.6V11.5H7.6V7.3H13.975V4.35H4ZM16.8223 22.2H26.7973V19.25H20.4223V4.35H16.8223V22.2ZM29.8195 22.2H33.4195V4.35H29.8195V22.2ZM44.9648 10.375H48.5648C48.5648 9.725 48.5148 9.0333 48.4148 8.3C48.3315 7.55 48.1065 6.8583 47.7398 6.225C47.3732 5.575 46.8148 5.0417 46.0648 4.625C45.3315 4.2083 44.3232 4 43.0398 4C41.6898 4 40.6148 4.2333 39.8148 4.7C39.0148 5.15 38.3982 5.7833 37.9648 6.6C37.5482 7.4167 37.2732 8.4 37.1398 9.55C37.0232 10.6833 36.9648 11.925 36.9648 13.275C36.9648 14.6417 37.0232 15.8917 37.1398 17.025C37.2732 18.1583 37.5482 19.1333 37.9648 19.95C38.3982 20.7667 39.0148 21.3917 39.8148 21.825C40.6148 22.2583 41.6898 22.475 43.0398 22.475C44.2232 22.475 45.1815 22.2917 45.9148 21.925C46.6648 21.5583 47.2398 21.05 47.6398 20.4C48.0565 19.75 48.3398 18.9917 48.4898 18.125C48.6398 17.2583 48.7148 16.3417 48.7148 15.375H45.1148C45.1148 16.3417 45.0565 17.125 44.9398 17.725C44.8232 18.3083 44.6648 18.7667 44.4648 19.1C44.2648 19.4167 44.0232 19.6333 43.7398 19.75C43.4732 19.85 43.1815 19.9 42.8648 19.9C42.4815 19.9 42.1398 19.825 41.8398 19.675C41.5565 19.5083 41.3148 19.2 41.1148 18.75C40.9315 18.2833 40.7898 17.6333 40.6898 16.8C40.6065 15.9667 40.5648 14.875 40.5648 13.525C40.5648 12.2583 40.5982 11.1917 40.6648 10.325C40.7315 9.4417 40.8482 8.7333 41.0148 8.2C41.1815 7.65 41.4065 7.2583 41.6898 7.025C41.9898 6.775 42.3648 6.65 42.8148 6.65C43.6315 6.65 44.1898 6.95 44.4898 7.55C44.8065 8.1333 44.9648 9.075 44.9648 10.375ZM55.6176 4.35H52.0176V22.2H55.6176V16.9L56.9426 14.875L60.6176 22.2H64.6676L59.2676 12L64.1176 4.35H60.2176L55.6676 11.5H55.6176V4.35ZM69.5953 16.625H65.9953V17.35C65.9953 19 66.4286 20.2667 67.2953 21.15C68.1786 22.0333 69.637 22.475 71.6703 22.475C73.6203 22.475 75.137 22.05 76.2203 21.2C77.3203 20.3333 77.8703 18.9583 77.8703 17.075C77.8703 16.525 77.8203 16.025 77.7203 15.575C77.6203 15.125 77.437 14.7167 77.1703 14.35C76.9203 13.9667 76.5786 13.6167 76.1453 13.3C75.712 12.9667 75.1536 12.65 74.4703 12.35L71.6953 11.15C70.9286 10.8333 70.4286 10.4917 70.1953 10.125C69.962 9.7417 69.8453 9.275 69.8453 8.725C69.8453 8.4583 69.8703 8.2 69.9203 7.95C69.987 7.7 70.0953 7.4833 70.2453 7.3C70.412 7.1 70.6286 6.9417 70.8953 6.825C71.162 6.7083 71.4953 6.65 71.8953 6.65C72.5953 6.65 73.0953 6.8833 73.3953 7.35C73.6953 7.8 73.8453 8.45 73.8453 9.3H77.2953V8.8C77.2953 7.95 77.1536 7.225 76.8703 6.625C76.6036 6.0083 76.2203 5.5083 75.7203 5.125C75.237 4.725 74.6536 4.4417 73.9703 4.275C73.3036 4.0917 72.5703 4 71.7703 4C70.0536 4 68.7036 4.4333 67.7203 5.3C66.737 6.1667 66.2453 7.4833 66.2453 9.25C66.2453 9.9833 66.337 10.6333 66.5203 11.2C66.7036 11.75 66.987 12.2417 67.3703 12.675C67.7703 13.0917 68.262 13.4583 68.8453 13.775C69.4286 14.0917 70.1203 14.3833 70.9203 14.65C71.5203 14.85 72.0203 15.05 72.4203 15.25C72.837 15.4333 73.1703 15.6417 73.4203 15.875C73.6703 16.1083 73.8453 16.375 73.9453 16.675C74.062 16.9583 74.1203 17.3 74.1203 17.7C74.1203 18.45 73.8953 19.0083 73.4453 19.375C73.012 19.725 72.5203 19.9 71.9703 19.9C71.5036 19.9 71.112 19.8333 70.7953 19.7C70.4953 19.5667 70.2536 19.3833 70.0703 19.15C69.887 18.9167 69.762 18.6333 69.6953 18.3C69.6286 17.95 69.5953 17.5667 69.5953 17.15V16.625ZM91.7648 19.55V14.175H93.3148C93.7148 14.175 94.0818 14.2167 94.4148 14.3C94.7488 14.3833 95.0318 14.5333 95.2648 14.75C95.5148 14.95 95.7068 15.225 95.8398 15.575C95.9898 15.9083 96.0648 16.3333 96.0648 16.85C96.0648 17.8833 95.7988 18.5917 95.2648 18.975C94.7318 19.3583 94.0318 19.55 93.1648 19.55H91.7648ZM91.7648 11.675V7H93.0648C93.9648 7 94.6238 7.175 95.0398 7.525C95.4568 7.875 95.6648 8.475 95.6648 9.325C95.6648 10.175 95.4318 10.7833 94.9648 11.15C94.5148 11.5 93.7898 11.675 92.7898 11.675H91.7648ZM88.1648 4.35V22.2H94.2398C95.2898 22.2 96.1648 22.0583 96.8648 21.775C97.5818 21.4917 98.1568 21.1167 98.5898 20.65C99.0398 20.1667 99.3568 19.6083 99.5398 18.975C99.7238 18.3417 99.8148 17.675 99.8148 16.975C99.8148 15.775 99.5238 14.8167 98.9398 14.1C98.3568 13.3833 97.5648 12.9583 96.5648 12.825V12.775C97.4648 12.525 98.1398 12.0583 98.5898 11.375C99.0398 10.675 99.2648 9.8417 99.2648 8.875C99.2648 8.025 99.1398 7.3083 98.8898 6.725C98.6398 6.1417 98.2898 5.675 97.8398 5.325C97.3898 4.975 96.8488 4.725 96.2148 4.575C95.5988 4.425 94.9238 4.35 94.1898 4.35H88.1648ZM106.532 13.275C106.532 12.075 106.557 11.0583 106.607 10.225C106.673 9.3917 106.79 8.7083 106.957 8.175C107.14 7.6417 107.39 7.2583 107.707 7.025C108.04 6.775 108.473 6.65 109.007 6.65C109.54 6.65 109.965 6.775 110.282 7.025C110.615 7.2583 110.865 7.6417 111.032 8.175C111.215 8.7083 111.332 9.3917 111.382 10.225C111.448 11.0583 111.482 12.075 111.482 13.275C111.482 14.475 111.448 15.5 111.382 16.35C111.332 17.1833 111.215 17.8667 111.032 18.4C110.865 18.9167 110.615 19.3 110.282 19.55C109.965 19.7833 109.54 19.9 109.007 19.9C108.473 19.9 108.04 19.7833 107.707 19.55C107.39 19.3 107.14 18.9167 106.957 18.4C106.79 17.8667 106.673 17.1833 106.607 16.35C106.557 15.5 106.532 14.475 106.532 13.275ZM102.932 13.275C102.932 14.6417 102.99 15.8917 103.107 17.025C103.24 18.1583 103.515 19.1333 103.932 19.95C104.365 20.7667 104.982 21.3917 105.782 21.825C106.582 22.2583 107.657 22.475 109.007 22.475C110.357 22.475 111.432 22.2583 112.232 21.825C113.032 21.3917 113.64 20.7667 114.057 19.95C114.49 19.1333 114.765 18.1583 114.882 17.025C115.015 15.8917 115.082 14.6417 115.082 13.275C115.082 11.925 115.015 10.6833 114.882 9.55C114.765 8.4 114.49 7.4167 114.057 6.6C113.64 5.7833 113.032 5.15 112.232 4.7C111.432 4.2333 110.357 4 109.007 4C107.657 4 106.582 4.2333 105.782 4.7C104.982 5.15 104.365 5.7833 103.932 6.6C103.515 7.4167 103.24 8.4 103.107 9.55C102.99 10.6833 102.932 11.925 102.932 13.275ZM117.088 4.35L121.188 13.175L116.738 22.2H120.688L123.238 16.15L125.813 22.2H129.863L125.413 13.175L129.563 4.35H125.638L123.363 10.125L121.063 4.35H117.088Z" fill="white"/>
</g>
<defs>
<filter id="filter0_d" x="0" y="0" width="133.863" height="26.475" filterUnits="userSpaceOnUse" color-interpolation-filters="sRGB">
<feFlood flood-opacity="0" result="BackgroundImageFix"/>
<feColorMatrix in="SourceAlpha" type="matrix" values="0 0 0 0 0 0 0 0 0 0 0 0 0 0 0 0 0 0 127 0"/>
<feOffset/>
<feGaussianBlur stdDeviation="2"/>
<feColorMatrix type="matrix" values="0 0 0 0 0.875 0 0 0 0 0.336 0 0 0 0 0.0328125 0 0 0 1 0"/>
<feBlend mode="normal" in2="BackgroundImageFix" result="effect1_dropShadow"/>
<feBlend mode="normal" in="SourceGraphic" in2="effect1_dropShadow" result="shape"/>
</filter>
</defs>
</svg>
