<svg width="24" height="24" viewBox="0 0 24 24" fill="none" xmlns="http://www.w3.org/2000/svg">
<path fill-rule="evenodd" clip-rule="evenodd" d="M14 6.23607L10 8.23607V15L14 17V6.23607ZM16 3L8.76393 6.61803H5C3.89543 6.61803 3 7.51346 3 8.61803V14.618C3 15.7226 3.89543 16.618 5 16.618H8.76393L16 20.2361V3ZM5 8.61803H8V14.618H5V8.61803ZM21 11.618C21 9.20737 20.0649 7.03042 18.5748 5.55823L16.9973 6.82022C18.2072 7.90974 19 9.6437 19 11.618C19 13.5924 18.2072 15.3263 16.9973 16.4159L18.5748 17.6778C20.0649 16.2057 21 14.0287 21 11.618Z" fill="white"/>
</svg>
