<svg width="56" height="48" viewBox="0 0 56 48" fill="none" xmlns="http://www.w3.org/2000/svg">
<path d="M30.1465 5.17364L32.1465 5.17364L32.1465 5.17363L30.1465 5.17364ZM26.7323 44.7614L28.1465 43.3472L26.7323 44.7614ZM15.7325 14.5896L17.1467 16.0038L15.7325 14.5896ZM15.7321 33.7612L17.1463 32.347L15.7321 33.7612ZM14.3179 31.1754L4.14648 31.1754L4.14648 35.1754H14.3179V31.1754ZM4.14648 31.1754L4.14648 17.1754H0.146484L0.146484 31.1754H4.14648ZM4.14648 17.1754L14.3183 17.1754V13.1754L4.14648 13.1754V17.1754ZM17.1467 16.0038L28.1465 5.00401L25.3181 2.17558L14.3183 13.1754L17.1467 16.0038ZM28.1465 5.00401L28.1465 5.17364L32.1465 5.17363L32.1465 5.00401L28.1465 5.00401ZM28.1465 5.17364L28.1465 42.1736H32.1465L32.1465 5.17364L28.1465 5.17364ZM28.1465 42.1736V43.3472H32.1465V42.1736H28.1465ZM28.1465 43.3472L17.1463 32.347L14.3179 35.1754L25.3181 46.1756L28.1465 43.3472ZM28.1465 43.3472L28.1465 43.3472L25.3181 46.1756C27.8379 48.6954 32.1465 46.9108 32.1465 43.3472H28.1465ZM28.1465 5.00401L28.1465 5.00401L32.1465 5.00401C32.1465 1.4404 27.8379 -0.344287 25.3181 2.17558L28.1465 5.00401ZM14.3183 17.1754C15.3791 17.1754 16.3965 16.754 17.1467 16.0038L14.3183 13.1754L14.3183 13.1754V17.1754ZM4.14648 17.1754L4.14648 17.1754V13.1754C1.93735 13.1754 0.146484 14.9663 0.146484 17.1754H4.14648ZM4.14648 31.1754L4.14648 31.1754H0.146484C0.146484 33.3845 1.93734 35.1754 4.14648 35.1754L4.14648 31.1754ZM14.3179 35.1754L14.3179 35.1754L17.1463 32.347C16.3961 31.5968 15.3787 31.1754 14.3179 31.1754V35.1754Z" fill="#F4F4F4"/>
<path d="M41.033 16.6962L39.6709 18.1607L39.6709 18.1607L41.033 16.6962ZM44.2425 21.6394L42.3309 22.2276L42.3309 22.2276L44.2425 21.6394ZM37.8578 12.1933C36.86 11.7195 35.667 12.1443 35.1932 13.1421C34.7194 14.1399 35.1442 15.3328 36.142 15.8067L37.8578 12.1933ZM41.033 32.0691L39.6709 30.6046L39.6709 30.6046L41.033 32.0691ZM36.1444 32.9575C35.1467 33.4315 34.7221 34.6245 35.1961 35.6222C35.67 36.6199 36.8631 37.0445 37.8608 36.5705L36.1444 32.9575ZM44.2425 27.1259L46.154 27.7141L46.154 27.7141L44.2425 27.1259ZM39.6709 18.1607C41.0038 19.4004 41.8909 20.7976 42.3309 22.2276L46.154 21.0512C45.4828 18.8699 44.1759 16.888 42.3951 15.2317L39.6709 18.1607ZM36.142 15.8067C37.506 16.4544 38.6955 17.2534 39.6709 18.1607L42.3951 15.2317C41.0928 14.0205 39.5552 12.9994 37.8578 12.1933L36.142 15.8067ZM39.6709 30.6046C38.6961 31.5113 37.5075 32.31 36.1444 32.9575L37.8608 36.5705C39.557 35.7647 41.0936 34.7441 42.3951 33.5336L39.6709 30.6046ZM42.3309 26.5377C41.8909 27.9677 41.0038 29.3649 39.6709 30.6046L42.3951 33.5336C44.1759 31.8773 45.4828 29.8954 46.154 27.7141L42.3309 26.5377ZM46.154 27.7141C46.8276 25.5252 46.8276 23.2401 46.154 21.0512L42.3309 22.2276C42.7686 23.65 42.7686 25.1154 42.3309 26.5377L46.154 27.7141Z" fill="#F4F4F4"/>
</svg>
