<svg width="60" height="48" viewBox="0 0 60 48" fill="none" xmlns="http://www.w3.org/2000/svg">
<path d="M30.1465 5.17364L32.1465 5.17364L32.1465 5.17363L30.1465 5.17364ZM26.7323 44.7614L28.1465 43.3472L26.7323 44.7614ZM15.7325 14.5896L17.1467 16.0038L15.7325 14.5896ZM15.7321 33.7612L17.1463 32.347L15.7321 33.7612ZM14.3179 31.1754L4.14648 31.1754L4.14648 35.1754H14.3179V31.1754ZM4.14648 31.1754L4.14648 17.1754H0.146484L0.146484 31.1754H4.14648ZM4.14648 17.1754H14.3183V13.1754L4.14648 13.1754V17.1754ZM17.1467 16.0038L28.1465 5.00401L25.3181 2.17558L14.3183 13.1754L17.1467 16.0038ZM28.1465 5.00401L28.1465 5.17364L32.1465 5.17363L32.1465 5.00401L28.1465 5.00401ZM28.1465 5.17364L28.1465 42.1736H32.1465L32.1465 5.17364L28.1465 5.17364ZM28.1465 42.1736V43.3472H32.1465V42.1736H28.1465ZM28.1465 43.3472L17.1463 32.347L14.3179 35.1754L25.3181 46.1756L28.1465 43.3472ZM28.1465 43.3472L28.1465 43.3472L25.3181 46.1756C27.8379 48.6954 32.1465 46.9108 32.1465 43.3472H28.1465ZM28.1465 5.00401L28.1465 5.00401L32.1465 5.00401C32.1465 1.4404 27.8379 -0.344287 25.3181 2.17558L28.1465 5.00401ZM14.3183 17.1754C15.3791 17.1754 16.3965 16.754 17.1467 16.0038L14.3183 13.1754L14.3183 13.1754V17.1754ZM4.14648 17.1754L4.14648 17.1754V13.1754C1.93735 13.1754 0.146484 14.9663 0.146484 17.1754H4.14648ZM4.14648 31.1754L4.14648 31.1754H0.146484C0.146484 33.3845 1.93734 35.1754 4.14648 35.1754L4.14648 31.1754ZM14.3179 35.1754L14.3179 35.1754L17.1463 32.347C16.3961 31.5968 15.3787 31.1754 14.3179 31.1754V35.1754Z" fill="#F4F4F4"/>
<path d="M40.636 30.3181L46.4214 24.5326L47.5785 23.3756L53.3639 17.5901" stroke="#F4F4F4" stroke-width="4" stroke-linecap="round" stroke-linejoin="round"/>
<path d="M53.364 30.3181L47.5786 24.5326L46.4215 23.3756L40.6361 17.5901" stroke="#F4F4F4" stroke-width="4" stroke-linecap="round" stroke-linejoin="round"/>
</svg>
