<svg width="44" height="54" viewBox="0 0 44 54" fill="none" xmlns="http://www.w3.org/2000/svg">
<path d="M18 10.8596L20 10.8596L18 10.8596ZM2 10.8596H4H2ZM2 43.1403H0H2ZM18 43.1403H20H18ZM42 10.8596H44H42ZM26 10.8596H28H26ZM26 43.1403L24 43.1403L26 43.1403ZM42 43.1403H40H42ZM42 6.85962H40H42ZM16 6.85962L16 10.8596L20 10.8596V6.85962H16ZM6 4.85962L14 4.85962V0.859619L6 0.859619V4.85962ZM4 10.8596L4 6.85962H0L0 10.8596H4ZM4 43.1403L4 10.8596H0L0 43.1403H4ZM4 47.1403L4 43.1403H0L0 47.1403H4ZM14 49.1403H6L6 53.1403H14L14 49.1403ZM16 43.1403L16 47.1403H20V43.1403H16ZM16 10.8596L16 43.1403H20L20 10.8596L16 10.8596ZM40 6.85962V10.8596L44 10.8596V6.85962L40 6.85962ZM30 4.85962L38 4.85962V0.859619L30 0.859619V4.85962ZM28 10.8596V6.85962L24 6.85962V10.8596H28ZM28 43.1403L28 10.8596H24L24 43.1403L28 43.1403ZM28 47.1403V43.1403L24 43.1403V47.1403L28 47.1403ZM38 49.1403H30V53.1403H38V49.1403ZM40 43.1403V47.1403H44V43.1403H40ZM40 10.8596L40 43.1403H44L44 10.8596L40 10.8596ZM38 53.1403C41.3137 53.1403 44 50.454 44 47.1403H40C40 48.2449 39.1046 49.1403 38 49.1403V53.1403ZM30 0.859619C26.6863 0.859619 24 3.54591 24 6.85962L28 6.85962C28 5.75505 28.8954 4.85962 30 4.85962V0.859619ZM44 6.85962C44 3.54591 41.3137 0.859619 38 0.859619V4.85962C39.1046 4.85962 40 5.75505 40 6.85962L44 6.85962ZM14 53.1403C17.3137 53.1403 20 50.454 20 47.1403H16C16 48.2449 15.1046 49.1403 14 49.1403L14 53.1403ZM24 47.1403C24 50.454 26.6863 53.1403 30 53.1403V49.1403C28.8954 49.1403 28 48.2449 28 47.1403L24 47.1403ZM6 0.859619C2.68629 0.859619 0 3.54591 0 6.85962H4C4 5.75505 4.89543 4.85962 6 4.85962V0.859619ZM0 47.1403C0 50.454 2.68629 53.1403 6 53.1403L6 49.1403C4.89543 49.1403 4 48.2449 4 47.1403H0ZM20 6.85962C20 3.54591 17.3137 0.859619 14 0.859619V4.85962C15.1046 4.85962 16 5.75505 16 6.85962H20Z" fill="#F4F4F4"/>
</svg>
