<svg width="24" height="24" viewBox="0 0 24 24" fill="none" xmlns="http://www.w3.org/2000/svg">
<path fill-rule="evenodd" clip-rule="evenodd" d="M2.3415 12.7526L10.3415 19.7526C10.9881 20.3183 12 19.8592 12 19V4.99999C12 4.14083 10.9881 3.68166 10.3415 4.24742L2.3415 11.2474C1.88617 11.6458 1.88617 12.3542 2.3415 12.7526ZM12.3415 12.7526L20.3415 19.7526C20.9881 20.3183 22 19.8592 22 19V4.99999C22 4.14083 20.9881 3.68166 20.3415 4.24742L12.3415 11.2474C11.8862 11.6458 11.8862 12.3542 12.3415 12.7526ZM10 7.20376L4.51859 12L10 16.7962V7.20376ZM20 7.20376V16.7962L14.5186 12L20 7.20376Z" fill="white"/>
</svg>
