<svg width="24" height="24" viewBox="0 0 24 24" fill="none" xmlns="http://www.w3.org/2000/svg">
<path fill-rule="evenodd" clip-rule="evenodd" d="M2.70711 1.29285L1.29289 2.70706L5.58579 6.99995H3C1.89543 6.99995 1 7.89538 1 8.99995V15C1 16.1045 1.89543 17 3 17H6.76393L14 20.618V15.4142L21.2929 22.7071L22.7071 21.2928L2.70711 1.29285ZM12 13.4142L8 9.41417V15.3819L12 17.3819V13.4142ZM12 6.61799V7.78574L14 9.78574V3.38192L9.73079 5.51653L11.2215 7.00724L12 6.61799ZM16.9616 12.7474L18.6654 14.4511C18.8828 13.6773 19 12.8533 19 12C19 9.58929 18.0649 7.41234 16.5748 5.94015L14.9973 7.20214C16.2072 8.29166 17 10.0256 17 12C17 12.2533 16.9869 12.5028 16.9616 12.7474ZM20.2542 16.04L21.7717 17.5575C22.5539 15.9223 23 14.0209 23 12C23 8.56806 21.7136 5.4807 19.6791 3.45667L18.1031 4.71743C19.8488 6.34631 21 8.98778 21 12C21 13.4577 20.7304 14.8286 20.2542 16.04ZM6 8.99995H3V15H6V8.99995Z" fill="white"/>
</svg>
