<svg width="24" height="24" viewBox="0 0 24 24" fill="none" xmlns="http://www.w3.org/2000/svg">
<path fill-rule="evenodd" clip-rule="evenodd" d="M2 4.99999V19C2 19.8592 3.01192 20.3183 3.6585 19.7526L11.6585 12.7526C12.1138 12.3542 12.1138 11.6458 11.6585 11.2474L3.6585 4.24742C3.01192 3.68166 2 4.14083 2 4.99999ZM9.48141 12L4 16.7962V7.20376L9.48141 12ZM12 4.99999C12 4.14083 13.0119 3.68166 13.6585 4.24742L21.6585 11.2474C22.1138 11.6458 22.1138 12.3542 21.6585 12.7526L13.6585 19.7526C13.0119 20.3183 12 19.8592 12 19V4.99999ZM14 7.20376L19.4814 12L14 16.7962V7.20376Z" fill="white"/>
</svg>
