<svg width="120" height="120" viewBox="0 0 120 120" fill="none" xmlns="http://www.w3.org/2000/svg">
<path d="M84.4901 40.2761L86.2948 39.4141L86.2948 39.4141L84.4901 40.2761ZM91.6094 55.1823L93.4142 54.3203L93.4142 54.3203L91.6094 55.1823ZM90 60C90 61.1046 90.8954 62 92 62C93.1046 62 94 61.1046 94 60H90ZM71.7376 58.7639L73.6397 59.382L73.6397 59.382L71.7376 58.7639ZM70.3026 63.1803L68.4005 62.5623L68.4005 62.5623L70.3026 63.1803ZM49.6974 63.1803L47.7953 63.7984L47.7953 63.7984L49.6974 63.1803ZM48.2624 58.7639L50.1645 58.1459L50.1645 58.1459L48.2624 58.7639ZM26 60C26 61.1046 26.8954 62 28 62C29.1046 62 30 61.1046 30 60H26ZM28.3906 55.1823L30.1953 56.0442L30.1953 56.0442L28.3906 55.1823ZM35.5099 40.2761L37.3147 41.138L37.3147 41.138L35.5099 40.2761ZM86.2948 39.4141C85.2985 37.3281 83.1924 36 80.8806 36V40C81.6512 40 82.3532 40.4427 82.6853 41.138L86.2948 39.4141ZM93.4142 54.3203L86.2948 39.4141L82.6853 41.138L89.8047 56.0442L93.4142 54.3203ZM94 56.9062C94 56.0113 93.7998 55.1278 93.4142 54.3203L89.8047 56.0442C89.9333 56.3134 90 56.6079 90 56.9062H94ZM94 60V56.9062H90V60H94ZM94 60C94 56.6863 91.3137 54 88 54V58C89.1046 58 90 58.8954 90 60H94ZM88 54L75.5418 54V58L88 58V54ZM75.5418 54C72.9425 54 70.6387 55.6738 69.8355 58.1459L73.6397 59.382C73.9075 58.5579 74.6754 58 75.5418 58V54ZM69.8355 58.1459L68.4005 62.5623L72.2047 63.7984L73.6397 59.382L69.8355 58.1459ZM68.4005 62.5623C68.1328 63.3864 67.3648 63.9443 66.4984 63.9443V67.9443C69.0978 67.9443 71.4015 66.2705 72.2047 63.7984L68.4005 62.5623ZM66.4984 63.9443L53.5016 63.9443V67.9443H66.4984V63.9443ZM53.5016 63.9443C52.6352 63.9443 51.8672 63.3864 51.5995 62.5623L47.7953 63.7984C48.5985 66.2705 50.9022 67.9443 53.5016 67.9443V63.9443ZM51.5995 62.5623L50.1645 58.1459L46.3603 59.382L47.7953 63.7984L51.5995 62.5623ZM50.1645 58.1459C49.3613 55.6738 47.0575 54 44.4582 54V58C45.3246 58 46.0925 58.5579 46.3603 59.382L50.1645 58.1459ZM44.4582 54H32V58H44.4582V54ZM32 54C28.6863 54 26 56.6863 26 60H30C30 58.8954 30.8954 58 32 58V54ZM26 56.9062V60H30V56.9062H26ZM26.5858 54.3203C26.2002 55.1278 26 56.0113 26 56.9062H30C30 56.6079 30.0667 56.3134 30.1953 56.0442L26.5858 54.3203ZM33.7052 39.4141L26.5858 54.3203L30.1953 56.0442L37.3147 41.138L33.7052 39.4141ZM39.1194 36C36.8076 36 34.7015 37.3281 33.7052 39.4141L37.3147 41.138C37.6468 40.4427 38.3488 40 39.1194 40V36ZM80.8806 36L39.1194 36V40L80.8806 40V36Z" fill="#252525"/>
<path d="M70.3026 63.1803L68.4005 62.5623L70.3026 63.1803ZM48.2624 58.7639L46.3603 59.382L48.2624 58.7639ZM32 58H44.4582V54H32V58ZM30 78L30 60H26L26 78H30ZM88 80L32 80V84L88 84V80ZM90 60V78H94V60H90ZM75.5418 58H88V54H75.5418V58ZM69.8355 58.1459L68.4005 62.5623L72.2047 63.7984L73.6397 59.382L69.8355 58.1459ZM66.4984 63.9443H53.5016V67.9443H66.4984V63.9443ZM51.5995 62.5623L50.1645 58.1459L46.3603 59.382L47.7953 63.7984L51.5995 62.5623ZM53.5016 63.9443C52.6352 63.9443 51.8672 63.3864 51.5995 62.5623L47.7953 63.7984C48.5985 66.2705 50.9022 67.9443 53.5016 67.9443V63.9443ZM68.4005 62.5623C68.1328 63.3864 67.3648 63.9443 66.4984 63.9443V67.9443C69.0978 67.9443 71.4015 66.2705 72.2047 63.7984L68.4005 62.5623ZM75.5418 54C72.9425 54 70.6387 55.6738 69.8355 58.1459L73.6397 59.382C73.9075 58.5579 74.6754 58 75.5418 58V54ZM94 60C94 56.6863 91.3137 54 88 54V58C89.1046 58 90 58.8954 90 60H94ZM88 84C91.3137 84 94 81.3137 94 78H90C90 79.1046 89.1046 80 88 80V84ZM26 78C26 81.3137 28.6863 84 32 84V80C30.8954 80 30 79.1046 30 78H26ZM44.4582 58C45.3246 58 46.0925 58.5579 46.3603 59.382L50.1645 58.1459C49.3613 55.6738 47.0575 54 44.4582 54V58ZM32 54C28.6863 54 26 56.6863 26 60H30C30 58.8954 30.8954 58 32 58V54Z" fill="#FFFCFC"/>
</svg>
