<svg width="61" height="61" viewBox="0 0 61 61" fill="none" xmlns="http://www.w3.org/2000/svg">
<path d="M56.3679 58.8477C57.1489 59.6288 58.4153 59.6288 59.1963 58.8477C59.9774 58.0667 59.9774 56.8004 59.1963 56.0193L56.3679 58.8477ZM46.7342 43.5572C45.9531 42.7761 44.6868 42.7761 43.9057 43.5572C43.1247 44.3382 43.1247 45.6045 43.9057 46.3856L46.7342 43.5572ZM59.1963 56.0193L46.7342 43.5572L43.9057 46.3856L56.3679 58.8477L59.1963 56.0193Z" fill="#F4F4F4"/>
<path d="M4.57762 21.724C6.81983 13.3559 13.356 6.81975 21.7241 4.57754V4.57754C30.0921 2.33533 39.0207 4.72774 45.1465 10.8536V10.8536C51.2723 16.9794 53.6647 25.908 51.4225 34.276V34.276C49.1803 42.6441 42.6441 49.1802 34.2761 51.4225V51.4225C25.9081 53.6647 16.9795 51.2723 10.8537 45.1464V45.1464C4.72782 39.0206 2.33541 30.092 4.57762 21.724V21.724Z" stroke="#F4F4F4" stroke-width="4" stroke-linecap="round" stroke-linejoin="round"/>
<path d="M11.2776 27.9965C11.2775 29.101 12.1729 29.9965 13.2775 29.9966C14.382 29.9966 15.2775 29.1012 15.2776 27.9967L11.2776 27.9965ZM20.6375 15.2497L21.6375 16.9817L21.6375 16.9817L20.6375 15.2497ZM27.9957 15.2776C29.1003 15.2775 29.9956 14.3819 29.9955 13.2774C29.9953 12.1728 29.0998 11.2775 27.9952 11.2776L27.9957 15.2776ZM15.2776 27.9967C15.2778 23.4526 17.7022 19.2538 21.6375 16.9817L19.6375 13.5176C14.4646 16.5042 11.2779 22.0234 11.2776 27.9965L15.2776 27.9967ZM27.9952 11.2776C25.1097 11.278 22.2233 12.0247 19.6375 13.5176L21.6375 16.9817C23.6048 15.8459 25.7998 15.2779 27.9957 15.2776L27.9952 11.2776Z" fill="#F4F4F4"/>
</svg>
