<svg xmlns="http://www.w3.org/2000/svg" xmlns:xlink="http://www.w3.org/1999/xlink" width="60.013" height="59.9" viewBox="0 0 60.013 59.9">
  <defs>
    <clipPath id="clip-path">
      <rect width="60.013" height="59.9" fill="none"/>
    </clipPath>
  </defs>
  <g id="AI_Search" clip-path="url(#clip-path)">
    <path id="Path_304" data-name="Path 304" d="M65,42.5A22.5,22.5,0,1,0,42.5,65,22.534,22.534,0,0,0,65,42.5ZM42.5,61.3a19.025,19.025,0,0,1-13.3-5.5,18.8,18.8,0,1,1,26.6,0A19.025,19.025,0,0,1,42.5,61.3Z" transform="translate(-20 -20)" fill="#fff"/>
    <path id="Path_305" data-name="Path 305" d="M79.5,76.8h0L61.8,56.3l-3.6,7.2L76.8,79.4h0a1.656,1.656,0,0,0,1.3.5,1.9,1.9,0,0,0,1.3-.5A1.786,1.786,0,0,0,79.5,76.8Z" transform="translate(-20 -20)" fill="#fff"/>
  </g>
</svg>
