<svg width="28" height="28" viewBox="0 0 28 28" fill="none" xmlns="http://www.w3.org/2000/svg">
<path d="M22.3372 4.49239C20.7435 3.13159 18.6874 2.44442 16.5566 2.5575C14.4221 2.67058 12.4614 3.57005 11.0358 5.09C8.09283 8.22847 8.37404 13.067 11.6627 15.8756C13.1879 17.1777 15.0949 17.8182 16.9961 17.8182C19.1954 17.8182 21.3859 16.9606 22.9645 15.2773C25.9071 12.1395 25.6259 7.30098 22.3372 4.49239ZM22.2093 14.6333C19.6393 17.3746 15.2106 17.6091 12.3379 15.1552C9.46509 12.702 9.21967 8.47589 11.79 5.73464C13.0353 4.4067 14.7482 3.62095 16.6123 3.52237C16.7449 3.5156 16.8766 3.51206 17.0082 3.51206C18.7296 3.51206 20.3688 4.10838 21.6617 5.21242C24.5345 7.66598 24.7799 11.8921 22.2093 14.6333Z" fill="white"/>
<path d="M12.9277 7.62617C12.7432 7.81746 12.7609 8.1109 12.9667 8.28176C13.0625 8.36101 13.1816 8.40001 13.3004 8.40001C13.4379 8.40001 13.5747 8.34801 13.6735 8.24524C15.4166 6.43848 18.4183 6.28433 20.366 7.90073C20.5718 8.0719 20.8878 8.05549 21.0727 7.86451C21.2569 7.67322 21.2392 7.37978 21.0333 7.20891C18.6742 5.25079 15.0382 5.43837 12.9277 7.62617Z" fill="white"/>
<path d="M27.9799 9.65124C27.8048 6.91399 26.5031 4.40496 24.3145 2.58539C22.1259 0.765829 19.3147 -0.143148 16.3915 0.0183406C13.4714 0.182408 10.794 1.40244 8.85302 3.45376C4.96169 7.56575 5.24163 13.8142 9.39812 17.6116L7.61908 19.514L7.04853 19.0398C6.83565 18.8625 6.511 18.8806 6.32185 19.0791L0.131479 25.5628C0.0399991 25.6583 -0.00677261 25.784 0.0007934 25.9119C0.00835941 26.0399 0.0699194 26.1601 0.171717 26.2455L2.11652 27.8769C2.21523 27.9594 2.338 28 2.46043 28C2.60212 28 2.74313 27.9455 2.84492 27.8388L9.04355 21.3467C9.13503 21.251 9.18214 21.125 9.17423 20.9964C9.16632 20.8684 9.10408 20.7478 9.00159 20.6628L8.39115 20.1554L10.1692 18.2543C12.1236 19.736 14.5231 20.5312 17.0322 20.5312C17.2547 20.5312 17.4786 20.5248 17.7025 20.5122C20.6226 20.3478 23.3 19.1278 25.2413 17.0765C27.1827 15.0252 28.1549 12.3885 27.9799 9.65124ZM2.4202 26.8338L1.24437 25.8475L6.7483 20.0829L7.92928 21.0644L2.4202 26.8338ZM24.4693 16.435C22.7109 18.2933 20.2856 19.3982 17.6406 19.5468C14.9959 19.6996 12.4469 18.8696 10.4642 17.2219C6.37172 13.8196 5.99513 7.93095 9.6251 4.0952C11.3835 2.23695 13.8088 1.132 16.4538 0.983403C16.6567 0.971799 16.8589 0.96632 17.0608 0.96632C19.4867 0.96632 21.7998 1.78698 23.6305 3.30871C25.6131 4.95679 26.792 7.22988 26.9506 9.70894C27.1088 12.1883 26.2273 14.5771 24.4693 16.435Z" fill="white"/>
</svg>
