<svg width="57" height="60" viewBox="0 0 57 60" fill="none" xmlns="http://www.w3.org/2000/svg">
<path d="M38.9511 11.7158L37.9511 13.4479L37.9511 13.4479L38.9511 11.7158ZM38.9511 47.7158L39.9511 49.4479L39.9511 49.4479L38.9511 47.7158ZM18.1665 47.7158L19.1665 45.9838L19.1665 45.9838L18.1665 47.7158ZM18.1665 11.7158L17.1665 9.98377L17.1665 9.98377L18.1665 11.7158ZM23.3623 38.7162L22.3623 40.4482L22.3623 40.4482L23.3623 38.7162ZM33.7546 38.7162L34.7546 40.4482L34.7546 40.4482L33.7546 38.7162ZM21.6526 8.85994L19.6589 8.70112L21.6526 8.85994ZM9.73133 11.2995L8.87202 13.1055L9.73133 11.2995ZM2.45273 39.0192L0.568956 39.6911L2.45273 39.0192ZM3.19838 36.8116L2.064 35.1644L3.19838 36.8116ZM9.73583 48.1314L8.87652 46.3254L9.73583 48.1314ZM7.45155 47.6739L8.97481 46.3778L7.45155 47.6739ZM16.1292 46.3747L14.9335 47.9779L16.1292 46.3747ZM21.6525 50.5716L23.6461 50.4128L21.6525 50.5716ZM20.3477 48.8101L19.5573 50.6473L20.3477 48.8101ZM22.0229 55.2227L20.0293 55.3815L22.0229 55.2227ZM35.0956 55.2217L37.0893 55.3805L35.0956 55.2217ZM33.5571 56.9712L33.9177 58.9384L33.5571 56.9712ZM36.7707 48.8097L35.9803 46.9726L36.7707 48.8097ZM35.4661 50.5713L33.4724 50.4124L35.4661 50.5713ZM53.9159 36.8087L52.7815 38.4559L53.9159 36.8087ZM54.6616 39.0162L56.5455 39.6878L54.6616 39.0162ZM49.2005 32.1519L51.1867 32.386L49.2005 32.1519ZM50.0736 34.1626L51.208 32.5154L50.0736 34.1626ZM50.0738 25.2703L48.9394 23.6232L50.0738 25.2703ZM49.2006 27.281L51.1869 27.047L49.2006 27.281ZM54.6639 20.4159L56.5479 19.7447L54.6639 20.4159ZM40.9897 13.0579L42.1856 11.4549L40.9897 13.0579ZM3.19625 22.62L2.06187 24.2672L3.19625 22.62ZM35.4659 8.86033L37.4596 8.70152L35.4659 8.86033ZM43.1665 46.1254L44.0258 44.3194L43.1665 46.1254ZM40.9887 46.3745L42.1845 47.9776L40.9887 46.3745ZM22.0235 4.20284L20.0299 4.04403L22.0235 4.20284ZM49.6681 11.7593L51.1919 10.4639L49.6681 11.7593ZM49.6633 47.672L48.1399 46.3761L49.6633 47.672ZM47.3789 48.1297L48.2382 46.3237L47.3789 48.1297ZM35.095 4.2038L37.0887 4.04499L35.095 4.2038ZM33.917 0.487096C30.3758 -0.161995 26.7436 -0.162365 23.2023 0.485984L23.9227 4.42059C26.9874 3.85948 30.1312 3.85981 33.1958 4.42155L33.917 0.487096ZM37.4596 8.70152L37.0887 4.04499L33.1013 4.36261L33.4722 9.01915L37.4596 8.70152ZM39.9511 9.98377C39.1731 9.53458 38.3749 9.13487 37.5611 8.78471L35.9802 12.459C36.651 12.7477 37.3092 13.0772 37.9511 13.4479L39.9511 9.98377ZM42.1856 11.4549C41.4751 10.9248 40.7295 10.4332 39.9511 9.98377L37.9511 13.4479C38.5934 13.8187 39.2082 14.2241 39.7938 14.661L42.1856 11.4549ZM46.5241 9.49527L42.3084 11.5012L44.027 15.1131L48.2427 13.1072L46.5241 9.49527ZM56.5479 19.7447C55.3397 16.353 53.524 13.2069 51.1919 10.4639L48.1444 13.0548C50.1627 15.4287 51.7342 18.1518 52.7799 21.087L56.5479 19.7447ZM51.2082 26.9175L55.0524 24.2701L52.7837 20.9757L48.9394 23.6232L51.2082 26.9175ZM51.3434 29.7158C51.3434 28.8176 51.2905 27.9267 51.1869 27.047L47.2143 27.515C47.2998 28.2401 47.3434 28.9747 47.3434 29.7158H51.3434ZM51.1867 32.386C51.2904 31.5058 51.3434 30.6145 51.3434 29.7158H47.3434C47.3434 30.4573 47.2997 31.1923 47.2142 31.9178L51.1867 32.386ZM55.0503 35.1615L51.208 32.5154L48.9393 35.8098L52.7815 38.4559L55.0503 35.1615ZM51.1867 48.9679C53.5197 46.2253 55.3363 43.0794 56.5455 39.6878L52.7778 38.3445C51.7313 41.2797 50.159 44.0026 48.1399 46.3761L51.1867 48.9679ZM42.3072 47.9314L46.5196 49.9357L48.2382 46.3237L44.0258 44.3194L42.3072 47.9314ZM39.9511 49.4479C40.7291 48.9987 41.4743 48.5073 42.1845 47.9776L39.7928 44.7714C39.2075 45.208 38.593 45.6132 37.9511 45.9838L39.9511 49.4479ZM37.5612 50.6469C38.375 50.2967 39.1731 49.897 39.9511 49.4479L37.9511 45.9838C37.3092 46.3544 36.6511 46.6839 35.9803 46.9726L37.5612 50.6469ZM37.0893 55.3805L37.4597 50.7301L33.4724 50.4124L33.1019 55.0629L37.0893 55.3805ZM23.2016 58.9395C26.7434 59.588 30.3761 59.5877 33.9177 58.9384L33.1964 55.004C30.1314 55.5659 26.9872 55.5662 23.9221 55.0049L23.2016 58.9395ZM19.6588 50.7305L20.0293 55.3815L24.0166 55.0639L23.6461 50.4128L19.6588 50.7305ZM17.1665 49.4479C17.9447 49.8972 18.7432 50.297 19.5573 50.6473L21.1381 46.9729C20.467 46.6842 19.8086 46.3545 19.1665 45.9838L17.1665 49.4479ZM14.9335 47.9779C15.6435 48.5075 16.3886 48.9988 17.1665 49.4479L19.1665 45.9838C18.5247 45.6132 17.9103 45.2081 17.325 44.7716L14.9335 47.9779ZM10.5951 49.9374L14.8107 47.9316L13.0921 44.3196L8.87652 46.3254L10.5951 49.9374ZM0.568956 39.6911C1.77841 43.0822 3.59518 46.2277 5.92829 48.9699L8.97481 46.3778C6.95567 44.0047 5.38321 41.2822 4.33651 38.3474L0.568956 39.6911ZM5.90962 32.516L2.064 35.1644L4.33275 38.4588L8.17838 35.8104L5.90962 32.516ZM5.77418 29.7158C5.77418 30.6147 5.82715 31.5062 5.93093 32.3865L9.90342 31.9182C9.81788 31.1926 9.77418 30.4574 9.77418 29.7158H5.77418ZM5.93078 27.0464C5.8271 27.9263 5.77418 28.8174 5.77418 29.7158H9.77418C9.77418 28.9746 9.81784 28.2398 9.90329 27.5145L5.93078 27.0464ZM2.06187 24.2672L5.90947 26.917L8.17822 23.6226L4.33062 20.9728L2.06187 24.2672ZM5.92312 10.4618C3.59092 13.2044 1.77507 16.3501 0.566511 19.7414L4.33439 21.0842C5.38031 18.1493 6.95199 15.4266 8.97034 13.0531L5.92312 10.4618ZM14.8095 11.5009L10.5906 9.4935L8.87202 13.1055L13.0909 15.1129L14.8095 11.5009ZM17.1665 9.98377C16.3882 10.4331 15.6427 10.9247 14.9323 11.4546L17.3241 14.6608C17.9096 14.224 18.5243 13.8186 19.1665 13.4479L17.1665 9.98377ZM19.5574 8.78431C18.7432 9.13457 17.9448 9.53441 17.1665 9.98377L19.1665 13.4479C19.8087 13.0771 20.4671 12.7474 21.1382 12.4587L19.5574 8.78431ZM20.0299 4.04403L19.6589 8.70112L23.6463 9.01875L24.0172 4.36165L20.0299 4.04403ZM24.3623 22.4482C26.9589 20.9491 30.158 20.9491 32.7546 22.4482L34.7546 18.9841C30.9204 16.7704 26.1965 16.7704 22.3623 18.9841L24.3623 22.4482ZM20.1661 29.7162C20.1661 26.7179 21.7657 23.9474 24.3623 22.4482L22.3623 18.9841C18.5281 21.1978 16.1661 25.2888 16.1661 29.7162H20.1661ZM24.3623 36.9841C21.7657 35.485 20.1661 32.7144 20.1661 29.7162H16.1661C16.1661 34.1435 18.5281 38.2345 22.3623 40.4482L24.3623 36.9841ZM32.7546 36.9841C30.158 38.4833 26.9589 38.4833 24.3623 36.9841L22.3623 40.4482C26.1965 42.6619 30.9204 42.6619 34.7546 40.4482L32.7546 36.9841ZM36.9507 29.7162C36.9507 32.7144 35.3512 35.485 32.7546 36.9841L34.7546 40.4482C38.5888 38.2345 40.9507 34.1435 40.9507 29.7162H36.9507ZM32.7546 22.4482C35.3512 23.9474 36.9507 26.7179 36.9507 29.7162H40.9507C40.9507 25.2888 38.5888 21.1978 34.7546 18.9841L32.7546 22.4482ZM21.1382 12.4587C22.4767 11.8829 23.5195 10.6103 23.6463 9.01875L19.6589 8.70112C19.6594 8.69438 19.662 8.69915 19.6488 8.71675C19.6337 8.73687 19.6037 8.7644 19.5574 8.78431L21.1382 12.4587ZM8.97034 13.0531C8.95887 13.0665 8.94355 13.0794 8.92674 13.089C8.9107 13.0983 8.8972 13.1024 8.88832 13.1041C8.87203 13.1073 8.8675 13.1033 8.87202 13.1055L10.5906 9.4935C9.04672 8.75889 7.11207 9.06365 5.92312 10.4618L8.97034 13.0531ZM8.17838 35.8104C9.49334 34.9048 10.074 33.3654 9.90342 31.9182L5.93093 32.3865C5.93683 32.4366 5.92797 32.4763 5.91811 32.4994C5.90948 32.5197 5.90405 32.5198 5.90962 32.516L8.17838 35.8104ZM4.33651 38.3474C4.34246 38.3641 4.34592 38.3838 4.34588 38.4031C4.34584 38.4217 4.34267 38.4354 4.33973 38.444C4.33433 38.4597 4.32863 38.4616 4.33275 38.4588L2.064 35.1644C0.655743 36.1343 -0.0476324 37.9623 0.568956 39.6911L4.33651 38.3474ZM8.87652 46.3254C8.872 46.3276 8.87652 46.3236 8.8928 46.3268C8.90169 46.3285 8.91518 46.3327 8.93122 46.3419C8.94803 46.3515 8.96334 46.3643 8.97481 46.3778L5.92829 48.9699C7.11736 50.3674 9.05154 50.6719 10.5951 49.9374L8.87652 46.3254ZM17.325 44.7716C16.157 43.9004 14.5337 43.6337 13.0921 44.3196L14.8107 47.9316C14.8046 47.9345 14.8074 47.9299 14.8293 47.9326C14.8543 47.9356 14.8931 47.9478 14.9335 47.9779L17.325 44.7716ZM23.6461 50.4128C23.5194 48.8213 22.4766 47.5487 21.1381 46.9729L19.5573 50.6473C19.6036 50.6672 19.6335 50.6947 19.6487 50.7148C19.6619 50.7324 19.6593 50.7372 19.6588 50.7305L23.6461 50.4128ZM23.9221 55.0049C23.9395 55.0081 23.9583 55.015 23.975 55.0247C23.991 55.034 24.0014 55.0436 24.0073 55.0504C24.0182 55.063 24.017 55.0689 24.0166 55.0639L20.0293 55.3815C20.165 57.0859 21.3963 58.6089 23.2016 58.9395L23.9221 55.0049ZM33.1019 55.0629C33.1015 55.0679 33.1003 55.062 33.1112 55.0495C33.1172 55.0426 33.1275 55.033 33.1435 55.0237C33.1603 55.014 33.179 55.0072 33.1964 55.004L33.9177 58.9384C35.7227 58.6075 36.9535 57.0846 37.0893 55.3805L33.1019 55.0629ZM35.9803 46.9726C34.6418 47.5484 33.5991 48.821 33.4724 50.4124L37.4597 50.7301C37.4592 50.7368 37.4566 50.732 37.4698 50.7144C37.485 50.6943 37.5149 50.6668 37.5612 50.6469L35.9803 46.9726ZM52.7815 38.4559C52.7857 38.4587 52.78 38.4568 52.7746 38.4411C52.7716 38.4325 52.7685 38.4188 52.7684 38.4003C52.7684 38.3809 52.7718 38.3612 52.7778 38.3445L56.5455 39.6878C57.1618 37.9591 56.4584 36.1313 55.0503 35.1615L52.7815 38.4559ZM47.2142 31.9178C47.0437 33.3649 47.6243 34.9042 48.9393 35.8098L51.208 32.5154C51.2136 32.5193 51.2082 32.5191 51.1995 32.4989C51.1897 32.4757 51.1808 32.436 51.1867 32.386L47.2142 31.9178ZM48.9394 23.6232C47.6246 24.5287 47.0439 26.0679 47.2143 27.515L51.1869 27.047C51.181 26.9969 51.1898 26.9572 51.1997 26.9341C51.2083 26.9138 51.2138 26.9137 51.2082 26.9175L48.9394 23.6232ZM52.7799 21.087C52.774 21.0703 52.7705 21.0507 52.7705 21.0313C52.7706 21.0128 52.7738 20.999 52.7767 20.9905C52.7821 20.9748 52.7878 20.9729 52.7837 20.9757L55.0524 24.2701C56.4603 23.3005 57.1637 21.4732 56.5479 19.7447L52.7799 21.087ZM13.0909 15.1129C14.5326 15.7988 16.1561 15.5321 17.3241 14.6608L14.9323 11.4546C14.8919 11.4847 14.8531 11.4969 14.8281 11.5C14.8063 11.5026 14.8034 11.498 14.8095 11.5009L13.0909 15.1129ZM39.7938 14.661C40.9618 15.5323 42.5853 15.7991 44.027 15.1131L42.3084 11.5012C42.3145 11.4982 42.3117 11.5029 42.2898 11.5002C42.2648 11.4972 42.226 11.485 42.1856 11.4549L39.7938 14.661ZM4.33062 20.9728C4.3265 20.97 4.3322 20.9719 4.33759 20.9876C4.34054 20.9962 4.34371 21.0099 4.34375 21.0284C4.34379 21.0478 4.34034 21.0675 4.33439 21.0842L0.566511 19.7414C-0.049529 21.47 0.653888 23.2975 2.06187 24.2672L4.33062 20.9728ZM33.4722 9.01915C33.599 10.6106 34.6417 11.8831 35.9802 12.459L37.5611 8.78471C37.5148 8.76479 37.4848 8.73726 37.4697 8.71715C37.4565 8.69955 37.4591 8.69477 37.4596 8.70152L33.4722 9.01915ZM44.0258 44.3194C42.5842 43.6334 40.9608 43.9001 39.7928 44.7714L42.1845 47.9776C42.2248 47.9475 42.2637 47.9353 42.2886 47.9323C42.3105 47.9296 42.3133 47.9343 42.3072 47.9314L44.0258 44.3194ZM9.90329 27.5145C10.0738 26.0674 9.49311 24.5281 8.17822 23.6226L5.90947 26.917C5.90389 26.9131 5.90932 26.9133 5.91795 26.9335C5.92781 26.9567 5.93667 26.9964 5.93078 27.0464L9.90329 27.5145ZM23.2023 0.485984C21.3969 0.816518 20.1656 2.33961 20.0299 4.04403L24.0172 4.36165C24.0176 4.35666 24.0188 4.36257 24.0079 4.37508C24.002 4.38192 23.9916 4.39154 23.9756 4.40082C23.9589 4.41055 23.9401 4.4174 23.9227 4.42059L23.2023 0.485984ZM48.2427 13.1072C48.2473 13.1051 48.2427 13.1091 48.2264 13.1059C48.2176 13.1042 48.2041 13.1 48.188 13.0908C48.1712 13.0811 48.1559 13.0683 48.1444 13.0548L51.1919 10.4639C50.003 9.06547 48.0682 8.7606 46.5241 9.49527L48.2427 13.1072ZM48.1399 46.3761C48.1514 46.3626 48.1667 46.3498 48.1835 46.3401C48.1996 46.3309 48.2131 46.3268 48.222 46.325C48.2382 46.3219 48.2428 46.3258 48.2382 46.3237L46.5196 49.9357C48.0633 50.6702 49.9977 50.3656 51.1867 48.9679L48.1399 46.3761ZM33.1958 4.42155C33.1784 4.41836 33.1597 4.41151 33.1429 4.40178C33.1269 4.39249 33.1166 4.38287 33.1106 4.37604C33.0997 4.36353 33.1009 4.35763 33.1013 4.36261L37.0887 4.04499C36.9529 2.34086 35.722 0.817948 33.917 0.487096L33.1958 4.42155Z" fill="#F4F4F4"/>
</svg>
