<svg width="72" height="72" viewBox="0 0 72 72" fill="none" xmlns="http://www.w3.org/2000/svg">
<path d="M38.9996 44.9651L40.9996 44.9651C40.9996 44.4316 40.7864 43.9201 40.4074 43.5446C40.0284 43.169 39.5151 42.9604 38.9816 42.9652L38.9996 44.9651ZM45.9996 53.963L47.4138 55.3772L47.4138 55.3772L45.9996 53.963ZM63.2873 36.6753L64.7015 38.0895L64.7015 38.0895L63.2873 36.6753ZM63.2873 29.2507L64.7015 27.8365L64.7015 27.8365L63.2873 29.2507ZM45.9996 11.963L47.4138 10.5488L47.4138 10.5488L45.9996 11.963ZM38.9996 14.8625L40.9996 14.8625L40.9996 14.8625L38.9996 14.8625ZM38.9996 20.9628L39.0176 22.9628C40.1151 22.9529 40.9996 22.0604 40.9996 20.9628L38.9996 20.9628ZM28.7277 22.6372L28.1097 20.7351L28.1097 20.7351L28.7277 22.6372ZM11.6087 35.0749L9.99068 33.8993L9.99068 33.8993L11.6087 35.0749ZM5.76636 62.0706L7.72567 61.6692L7.72567 61.6692L5.76636 62.0706ZM9.49746 62.3624L11.2388 63.346L11.2388 63.346L9.49746 62.3624ZM11.609 59.0772L13.2271 60.2527L13.2271 60.2527L11.609 59.0772ZM28.7281 46.6395L28.11 44.7374L28.7281 46.6395ZM40.9996 51.0635L40.9996 44.9651L36.9996 44.9651L36.9996 51.0635L40.9996 51.0635ZM44.5854 52.5488C43.2621 53.872 40.9996 52.9348 40.9996 51.0635L36.9996 51.0635C36.9996 56.4985 43.5707 59.2203 47.4138 55.3772L44.5854 52.5488ZM61.8731 35.2611L44.5854 52.5488L47.4138 55.3772L64.7015 38.0895L61.8731 35.2611ZM61.8731 30.6649C63.1423 31.9341 63.1423 33.9919 61.8731 35.2611L64.7015 38.0895C67.5328 35.2582 67.5328 30.6678 64.7015 27.8365L61.8731 30.6649ZM44.5854 13.3772L61.8731 30.6649L64.7015 27.8365L47.4138 10.5488L44.5854 13.3772ZM40.9996 14.8625C40.9996 12.9911 43.2621 12.054 44.5854 13.3772L47.4138 10.5488C43.5707 6.70567 36.9996 9.42751 36.9996 14.8625L40.9996 14.8625ZM40.9996 20.9628L40.9996 14.8625L36.9996 14.8625L36.9996 20.9628L40.9996 20.9628ZM38.9816 18.9629C35.3109 18.996 31.6441 19.5867 28.1097 20.7351L29.3458 24.5393C32.49 23.5177 35.7521 22.9922 39.0176 22.9628L38.9816 18.9629ZM28.1097 20.7351C20.8315 23.0999 14.4888 27.7081 9.99068 33.8993L13.2267 36.2505C17.2284 30.7427 22.871 26.6431 29.3458 24.5393L28.1097 20.7351ZM9.99068 33.8993C5.49252 40.0905 3.06983 47.5468 3.06983 55.1995L7.06983 55.1995C7.06983 48.3915 9.2251 41.7582 13.2267 36.2505L9.99068 33.8993ZM3.06983 55.1995C3.06983 57.6556 3.3194 60.0916 3.80706 62.472L7.72567 61.6692C7.29185 59.5516 7.06983 57.3846 7.06983 55.1995L3.06983 55.1995ZM3.80706 62.472C4.19904 64.3854 5.76281 65.4005 7.30667 65.4959C8.79115 65.5876 10.3824 64.8622 11.2388 63.346L7.75609 61.3787C7.72615 61.4317 7.69209 61.4598 7.65764 61.4777C7.6157 61.4996 7.57495 61.5048 7.55335 61.5035C7.53239 61.5022 7.56983 61.4989 7.63113 61.5482C7.66218 61.5731 7.68895 61.604 7.70795 61.6354C7.72701 61.667 7.72847 61.6829 7.72567 61.6692L3.80706 62.472ZM11.2388 63.346C11.84 62.2819 12.5033 61.2489 13.2271 60.2527L9.991 57.9016C9.17747 59.0213 8.43181 60.1825 7.75609 61.3787L11.2388 63.346ZM13.2271 60.2527C17.2287 54.7449 22.8713 50.6454 29.3461 48.5416L28.11 44.7374C20.8318 47.1022 14.4892 51.7104 9.991 57.9016L13.2271 60.2527ZM29.3461 48.5416C32.4902 47.52 35.7522 46.9945 39.0176 46.965L38.9816 42.9652C35.311 42.9983 31.6443 43.589 28.11 44.7374L29.3461 48.5416Z" fill="#F4F4F4"/>
</svg>
