<svg width="36" height="36" viewBox="0 0 36 36" fill="none" xmlns="http://www.w3.org/2000/svg">
<path d="M18.884 5.87598L18.884 5.87599L10.4751 12.1762L10.4351 12.2061H10.3852H5.61637C5.43534 12.2061 5.28892 12.3525 5.28892 12.5336V23.3453C5.28892 23.5264 5.43534 23.6728 5.61637 23.6728H10.3861H10.4358L10.4756 23.7024L18.8848 29.9551L18.884 5.87598ZM18.884 5.87598C18.9833 5.80157 19.1161 5.78973 19.2271 5.84523C19.3379 5.90067 19.4079 6.01418 19.4077 6.13765V6.13791M18.884 5.87598L19.4077 6.13791M19.4077 6.13791V29.6923C19.4077 29.8158 19.3381 29.9288 19.2277 29.9846C19.1805 30.0083 19.1303 30.0197 19.0802 30.0197C19.0113 30.0197 18.9425 29.9979 18.8849 29.9552L19.4077 6.13791ZM18.5136 28.8628L18.7531 29.0409L18.7531 28.7425L18.7528 7.0925L18.7528 6.79269L18.5128 6.97246L10.7406 12.7958C10.7405 12.7958 10.7405 12.7958 10.7405 12.7958C10.6841 12.838 10.6151 12.861 10.5443 12.861H6.09382H5.94382V13.011V22.8679V23.0179H6.09382H10.5443C10.6145 23.0179 10.6832 23.0406 10.7398 23.0826C10.7399 23.0826 10.7399 23.0826 10.7399 23.0826L18.5136 28.8628Z" stroke="white" stroke-width="0.3"/>
<path d="M23.2587 14.7653L23.2589 14.7655C25.1229 16.5638 25.2805 19.6545 23.6147 21.6617L23.6146 21.6618C23.4931 21.8079 23.5057 22.035 23.6397 22.1648C23.7673 22.2874 23.9597 22.2771 24.0756 22.1375L24.0756 22.1375C25.9843 19.838 25.8002 16.2909 23.6697 14.2356C23.6697 14.2356 23.6697 14.2356 23.6697 14.2356L23.2587 14.7653ZM23.2587 14.7653C23.188 14.6973 23.15 14.6009 23.15 14.5004C23.15 14.4141 23.1783 14.3294 23.2337 14.2624L23.2587 14.7653Z" stroke="white" stroke-width="0.3"/>
<path d="M26.1394 12.2183L26.2595 12.308C26.3362 12.2054 26.4341 12.1568 26.5266 12.1507C26.6187 12.1446 26.7185 12.1796 26.8023 12.2695C29.3299 14.9786 29.5493 19.659 27.2836 22.6919L27.2836 22.6919C27.2069 22.7945 27.1091 22.8431 27.0165 22.8493C26.9243 22.8555 26.8247 22.8205 26.7409 22.731C26.5665 22.5433 26.5492 22.2106 26.7085 21.9976L26.7086 21.9975C28.6558 19.3906 28.4725 15.3787 26.2921 13.0414L26.2919 13.0412C26.2005 12.9437 26.15 12.803 26.15 12.6552C26.15 12.5283 26.1877 12.4046 26.2597 12.3079L26.1394 12.2183ZM26.1394 12.2183C26.046 12.3437 26 12.4997 26 12.6552C26 12.8353 26.0613 13.0144 26.1824 13.1438M26.1394 12.2183C26.3407 11.9487 26.6866 11.9255 26.912 12.1672C29.4905 14.9309 29.7116 19.6924 27.4038 22.7816L26.1824 13.1438M26.1824 13.1438C28.3118 15.4264 28.4935 19.3572 26.5884 21.9077C26.3867 22.1773 26.406 22.5911 26.6311 22.8332L26.1824 13.1438Z" stroke="white" stroke-width="0.3"/>
<circle opacity="0.6" cx="18" cy="18" r="17.75" stroke="white" stroke-width="0.5"/>
</svg>
