<svg width="25" height="26" viewBox="0 0 25 26" fill="none" xmlns="http://www.w3.org/2000/svg">
<path d="M14.2941 0.711068C14.1324 0.630219 13.9389 0.647407 13.7941 0.755948L5.38518 7.05611H0.61637C0.352497 7.05611 0.138916 7.26969 0.138916 7.53356V18.3453C0.138916 18.6092 0.352497 18.8228 0.61637 18.8228H5.38613L13.7954 25.0755C13.8794 25.1379 13.9797 25.1697 14.0802 25.1697C14.1534 25.1697 14.2267 25.1529 14.2948 25.1188C14.4558 25.0376 14.5577 24.8728 14.5577 24.6923V1.13791C14.558 0.957434 14.4558 0.791917 14.2941 0.711068ZM13.6031 23.7425L5.82921 17.9621C5.74677 17.901 5.64682 17.8679 5.54433 17.8679H1.09382V8.01101H5.54433C5.64746 8.01101 5.74804 7.97759 5.83048 7.91584L13.6028 2.0925L13.6031 23.7425Z" fill="white"/>
<path d="M18.2587 9.76526L18.2589 9.76546C20.1229 11.5638 20.2805 14.6545 18.6147 16.6617L18.6146 16.6618C18.4931 16.8079 18.5057 17.035 18.6397 17.1648C18.7673 17.2874 18.9597 17.2771 19.0756 17.1375L19.0756 17.1375C20.9843 14.838 20.8002 11.2909 18.6697 9.23561C18.6697 9.23561 18.6697 9.23561 18.6697 9.23561L18.2587 9.76526ZM18.2587 9.76526C18.188 9.69734 18.15 9.60087 18.15 9.50036C18.15 9.41408 18.1783 9.32945 18.2337 9.26243L18.2587 9.76526Z" fill="white" stroke="white" stroke-width="0.3"/>
<path d="M21.912 7.16716C21.6866 6.92553 21.3407 6.94868 21.1394 7.21829C21.046 7.34369 21 7.49968 21 7.65524C21 7.83526 21.0613 8.01442 21.1824 8.14375C23.3118 10.4264 23.4935 14.3572 21.5884 16.9077C21.3867 17.1773 21.406 17.5911 21.6311 17.8332C21.8566 18.0744 22.2024 18.0512 22.4038 17.7816C24.7116 14.6924 24.4905 9.9309 21.912 7.16716Z" fill="white"/>
</svg>
