<svg width="104" height="104" viewBox="0 0 104 104" fill="none" xmlns="http://www.w3.org/2000/svg">
<circle cx="52" cy="52" r="50" stroke="#F4F4F4" stroke-width="4" stroke-linecap="round" stroke-linejoin="round"/>
<path d="M58.3588 30.5149L60.3588 30.5149L60.3588 30.5149L58.3588 30.5149ZM54.9617 76.9515L53.5646 78.3827L54.9617 76.9515ZM54.9617 28.0485L53.5646 26.6173L54.9617 28.0485ZM58.3588 29.4796L60.3588 29.4796L58.3588 29.4796ZM41.1639 41.518L39.7669 40.0868L41.1639 41.518ZM39.7664 60.9127H27.1736V64.9127H39.7664V60.9127ZM27.1736 60.9127L27.1736 44.0868H23.1736L23.1736 60.9127H27.1736ZM27.1736 44.0868L39.7669 44.0868V40.0868H27.1736V44.0868ZM42.561 42.9491L56.3588 29.4796L53.5646 26.6173L39.7669 40.0868L42.561 42.9491ZM56.3588 29.4796L56.3588 30.5149L60.3588 30.5149L60.3588 29.4796L56.3588 29.4796ZM56.3588 30.5149L56.3588 73.3236H60.3588L60.3588 30.5149H56.3588ZM56.3588 73.3236V75.5204H60.3588V73.3236H56.3588ZM56.3588 75.5204L42.5606 62.0504L39.7664 64.9127L53.5646 78.3827L56.3588 75.5204ZM56.3588 75.5204L56.3588 75.5204L53.5646 78.3827C56.098 80.8558 60.3588 79.0608 60.3588 75.5204H56.3588ZM56.3588 29.4796L56.3588 29.4796L60.3588 29.4796C60.3588 25.9391 56.098 24.1442 53.5646 26.6173L56.3588 29.4796ZM39.7669 44.0868C40.811 44.0868 41.8138 43.6785 42.561 42.9491L39.7669 40.0868L39.7669 40.0868V44.0868ZM27.1736 44.0868L27.1736 44.0868V40.0868C24.9644 40.0868 23.1736 41.8777 23.1736 44.0868H27.1736ZM27.1736 60.9127L27.1736 60.9127H23.1736C23.1736 63.1218 24.9644 64.9127 27.1736 64.9127V60.9127ZM39.7664 64.9127L39.7664 64.9127L42.5606 62.0504C41.8134 61.321 40.8106 60.9127 39.7664 60.9127V64.9127Z" fill="#F4F4F4"/>
<path d="M72.033 45.6962L70.6709 47.1607L70.6709 47.1607L72.033 45.6962ZM75.2425 50.6394L73.3309 51.2276L73.3309 51.2276L75.2425 50.6394ZM68.8578 41.1933C67.86 40.7195 66.667 41.1443 66.1932 42.1421C65.7194 43.1399 66.1442 44.3328 67.142 44.8067L68.8578 41.1933ZM72.033 61.0691L70.6709 59.6046L70.6709 59.6046L72.033 61.0691ZM67.1444 61.9575C66.1467 62.4315 65.7221 63.6245 66.1961 64.6222C66.67 65.6199 67.8631 66.0445 68.8608 65.5705L67.1444 61.9575ZM75.2425 56.1259L77.154 56.7141L77.154 56.7141L75.2425 56.1259ZM70.6709 47.1607C72.0038 48.4004 72.8909 49.7976 73.3309 51.2276L77.154 50.0512C76.4828 47.8699 75.1759 45.888 73.3951 44.2317L70.6709 47.1607ZM67.142 44.8067C68.506 45.4544 69.6955 46.2534 70.6709 47.1607L73.3951 44.2317C72.0928 43.0205 70.5552 41.9994 68.8578 41.1933L67.142 44.8067ZM70.6709 59.6046C69.6961 60.5113 68.5075 61.31 67.1444 61.9575L68.8608 65.5705C70.557 64.7647 72.0936 63.7441 73.3951 62.5336L70.6709 59.6046ZM73.3309 55.5377C72.8909 56.9677 72.0038 58.3649 70.6709 59.6046L73.3951 62.5336C75.1759 60.8773 76.4828 58.8954 77.154 56.7141L73.3309 55.5377ZM77.154 56.7141C77.8276 54.5252 77.8276 52.2401 77.154 50.0512L73.3309 51.2276C73.7686 52.65 73.7686 54.1154 73.3309 55.5377L77.154 56.7141Z" fill="#F4F4F4"/>
</svg>
