<svg width="54" height="60" viewBox="0 0 54 60" fill="none" xmlns="http://www.w3.org/2000/svg">
<path d="M43.3735 54.4144L47.9482 10.4973C47.9759 10.2314 47.7673 10 47.5 10H6.5C6.23266 10 6.02411 10.2314 6.0518 10.4973L10.6265 54.4144M43.3735 54.4144C43.1612 56.4521 41.4437 58 39.395 58H14.605C12.5563 58 10.8388 56.4521 10.6265 54.4144M43.3735 54.4144L48 10M10.6265 54.4144L6 10M48 10H6M48 10H52M6 10H2M14.8551 9.99861H39.1449L33.0744 2.38644H20.9256L14.8551 9.99861Z" stroke="#F4F4F4" stroke-width="4" stroke-linecap="round" stroke-linejoin="round"/>
</svg>
