<svg width="34" height="34" viewBox="0 0 34 34" fill="none" xmlns="http://www.w3.org/2000/svg">
<path d="M24.8334 8.66658C24.8334 13.0016 21.335 16.4999 17 16.4999C12.6651 16.4999 9.16671 13.0016 9.16671 8.66658C9.16671 4.33162 12.6651 0.833252 17 0.833252C21.335 0.833252 24.8334 4.33162 24.8334 8.66658ZM0.833374 30.8888C0.833374 29.6817 1.43368 28.5716 2.49993 27.5628C3.56865 26.5516 5.07151 25.6772 6.77699 24.9609C10.1899 23.5275 14.2909 22.7777 17 22.7777C19.7092 22.7777 23.8102 23.5275 27.2231 24.9609C28.9286 25.6772 30.4314 26.5516 31.5001 27.5628C32.5664 28.5716 33.1667 29.6817 33.1667 30.8888V33.1666H0.833374V30.8888Z" stroke="white"/>
</svg>
