<svg width="52" height="63" viewBox="0 0 52 63" fill="none" xmlns="http://www.w3.org/2000/svg">
<path d="M46 61L6.00001 61C3.79087 61 2 59.2091 2 57C2 50.3836 6.10481 44.4615 12.3003 42.1395L13.5304 41.6785C21.5704 38.6651 30.4296 38.6651 38.4696 41.6785L39.6997 42.1395C45.8952 44.4615 50 50.3836 50 57C50 59.2091 48.2091 61 46 61Z" stroke="#F4F4F4" stroke-width="4" stroke-linecap="square" stroke-linejoin="round"/>
<path d="M19.9015 29.8673C23.7294 31.8336 28.2706 31.8336 32.0985 29.8673V29.8673C35.6611 28.0373 38.2136 24.7042 39.0516 20.7878L39.2752 19.7425C40.1322 15.7375 39.2168 11.5576 36.7644 8.27737L36.4053 7.79702C33.9525 4.51632 30.0962 2.5845 26 2.5845V2.5845C21.9038 2.5845 18.0475 4.51632 15.5947 7.79702L15.2356 8.27737C12.7832 11.5576 11.8678 15.7375 12.7248 19.7425L12.9484 20.7878C13.7864 24.7042 16.3389 28.0373 19.9015 29.8673V29.8673Z" stroke="#F4F4F4" stroke-width="4" stroke-linecap="square" stroke-linejoin="round"/>
</svg>
